<?xml version="1.0" encoding="utf-8"?>
<!-- Generator: Adobe Illustrator 23.0.1, SVG Export Plug-In . SVG Version: 6.00 Build 0)  -->
<svg version="1.1" id="Layer_1" xmlns="http://www.w3.org/2000/svg" xmlns:xlink="http://www.w3.org/1999/xlink" x="0px" y="0px"
	 viewBox="0 0 60 60" style="enable-background:new 0 0 60 60;" xml:space="preserve">
<style type="text/css">
	.st0{fill:#010101;}
</style>
<path class="st0" d="M30,29.1c2.9,0,5.3-2.4,5.3-5.3s-2.4-5.3-5.3-5.3s-5.3,2.4-5.3,5.3C24.7,26.8,27.1,29.1,30,29.1z M30,20.3
	c1.9,0,3.5,1.6,3.5,3.5s-1.6,3.5-3.5,3.5s-3.5-1.6-3.5-3.5C26.5,21.9,28.1,20.3,30,20.3z"/>
<path class="st0" d="M30,24.7h0.9c0.5,0,0.9-0.4,0.9-0.9S31.4,23,30.9,23v-0.9c0-0.5-0.4-0.9-0.9-0.9s-0.9,0.4-0.9,0.9v1.8
	C29.1,24.3,29.5,24.7,30,24.7z"/>
<path class="st0" d="M37,35.3v-3.5c0-0.5-0.4-0.9-0.9-0.9H23.8c-0.5,0-0.9,0.4-0.9,0.9v3.5c0,0.5,0.4,0.9,0.9,0.9h12.3
	C36.6,36.2,37,35.8,37,35.3z M35.3,34.4H24.7v-1.8h10.6V34.4z"/>
<path class="st0" d="M9.8,30.9h7c0.5,0,0.9-0.4,0.9-0.9c0-0.5-0.4-0.9-0.9-0.9V23c0-0.5-0.4-0.9-0.9-0.9h-5.3
	c-0.5,0-0.9,0.4-0.9,0.9v6.2c-0.5,0-0.9,0.4-0.9,0.9C8.9,30.5,9.3,30.9,9.8,30.9z M11.5,23.8H15v5.3h-3.5V23.8z"/>
<path class="st0" d="M16.8,39.7v-6.2c0-0.5-0.4-0.9-0.9-0.9h-5.3c-0.5,0-0.9,0.4-0.9,0.9v6.2c-0.5,0-0.9,0.4-0.9,0.9
	s0.4,0.9,0.9,0.9h7c0.5,0,0.9-0.4,0.9-0.9S17.3,39.7,16.8,39.7z M11.5,34.4H15v5.3h-3.5V34.4z"/>
<path class="st0" d="M16.8,50.2v-6.2c0-0.5-0.4-0.9-0.9-0.9h-5.3c-0.5,0-0.9,0.4-0.9,0.9v6.2c-0.5,0-0.9,0.4-0.9,0.9S9.3,52,9.8,52
	h7c0.5,0,0.9-0.4,0.9-0.9S17.3,50.2,16.8,50.2z M11.5,45H15v5.3h-3.5V45z"/>
<path class="st0" d="M43.2,30.9h7c0.5,0,0.9-0.4,0.9-0.9c0-0.5-0.4-0.9-0.9-0.9V23c0-0.5-0.4-0.9-0.9-0.9h-5.3
	c-0.5,0-0.9,0.4-0.9,0.9v6.2c-0.5,0-0.9,0.4-0.9,0.9C42.3,30.5,42.7,30.9,43.2,30.9z M45,23.8h3.5v5.3H45V23.8z"/>
<path class="st0" d="M43.2,41.4h7c0.5,0,0.9-0.4,0.9-0.9s-0.4-0.9-0.9-0.9v-6.2c0-0.5-0.4-0.9-0.9-0.9h-5.3c-0.5,0-0.9,0.4-0.9,0.9
	v6.2c-0.5,0-0.9,0.4-0.9,0.9S42.7,41.4,43.2,41.4z M45,34.4h3.5v5.3H45V34.4z"/>
<path class="st0" d="M43.2,52h7c0.5,0,0.9-0.4,0.9-0.9s-0.4-0.9-0.9-0.9v-6.2c0-0.5-0.4-0.9-0.9-0.9h-5.3c-0.5,0-0.9,0.4-0.9,0.9
	v6.2c-0.5,0-0.9,0.4-0.9,0.9S42.7,52,43.2,52z M45,45h3.5v5.3H45V45z"/>
<path class="st0" d="M55.5,19.4c0.5,0,0.9-0.4,0.9-0.9c0-0.5-0.4-0.9-0.9-0.9H40l-9.1-6.6V9l4.3,0.7c0.5,0.1,0.9-0.2,1-0.7
	c0,0,0-0.1,0-0.1V5.4c0-0.4-0.3-0.8-0.7-0.9l-5.3-0.9v0c-0.5-0.1-0.9,0.2-1,0.7c0,0.1,0,0.1,0,0.2v6.6L20,17.7H4.5
	c-0.5,0-0.9,0.4-0.9,0.9c0,0.5,0.4,0.9,0.9,0.9h0.9v35.2H4.5c-0.5,0-0.9,0.4-0.9,0.9s0.4,0.9,0.9,0.9h51c0.5,0,0.9-0.4,0.9-0.9
	s-0.4-0.9-0.9-0.9h-0.9V19.4H55.5z M29.1,54.6h-3.5V45c0-2.1,1.5-3.9,3.5-4.3V54.6z M30.9,40.6c2,0.4,3.5,2.2,3.5,4.3v9.7h-3.5V40.6
	z M30,38.8c-3.4,0-6.2,2.8-6.2,6.2v9.7h-2.6V19l8.8-6.4l8.8,6.4v35.6h-2.6V45C36.2,41.6,33.4,38.8,30,38.8z M34.4,7.8l-3.5-0.6V5.5
	l3.5,0.6V7.8z M7.1,19.4h12.3v35.2H7.1V19.4z M52.9,54.6H40.6V19.4h12.3V54.6z"/>
</svg>
