<svg version="1.1" id="Layer_1" xmlns="http://www.w3.org/2000/svg" xmlns:xlink="http://www.w3.org/1999/xlink" x="0px" y="0px"
	 viewBox="0 0 60 60" style="enable-background:new 0 0 60 60;" xml:space="preserve">
<style type="text/css">
	.st0{fill:#010101;}
</style>
<g>
	<path class="st0" d="M29.1,2.5L2.6,15.3v6.6h54.7v-6.7L29.1,2.5z M53.7,18.2H6.3v-0.7l22.8-11l24.6,11V18.2z"/>
	<path class="st0" d="M6.3,47.4h47.4v3.6H6.3V47.4z"/>
	<path class="st0" d="M2.6,53.8h54.7v3.6H2.6V53.8z"/>
	<path class="st0" d="M7.2,25.5h3.6v18.2H7.2V25.5z"/>
	<path class="st0" d="M49.2,25.5h3.6v18.2h-3.6V25.5z"/>
	<path class="st0" d="M38.2,25.5h3.6v18.2h-3.6V25.5z"/>
	<path class="st0" d="M18.1,25.5h3.6v18.2h-3.6V25.5z"/>
	<path class="st0" d="M28.2,25.5h3.6v18.2h-3.6V25.5z"/>
</g>
</svg>
