<svg width="364" height="358" viewBox="0 0 364 358" fill="none" xmlns="http://www.w3.org/2000/svg">
<path d="M313.394 293.838C291.763 316.658 263.049 333.405 228.596 340.156C149.282 355.714 42.0607 331.999 17.9241 244.542C3.2094 191.245 13.5135 128.896 43.7355 82.7192C76.9617 31.9529 136.933 -2.29607 198.323 0.120152C258.383 2.48524 317.254 49.7614 342.133 102.356C373.518 168.668 359.583 245.117 313.394 293.838Z" fill="url(#paint0_linear)"/>
<g opacity="0.3">
<path opacity="0.3" d="M103.233 37.1945C102.62 37.5653 101.827 37.3735 101.456 36.7599C100.74 35.5709 99.9477 34.3948 99.1295 33.257C98.7076 32.6817 98.8354 31.8891 99.3979 31.4544C99.4107 31.4544 99.4107 31.4416 99.4235 31.4416C99.9988 31.0197 100.817 31.1476 101.239 31.7229C102.108 32.9118 102.926 34.1519 103.681 35.4047C104.026 35.98 103.872 36.7087 103.361 37.105C103.31 37.1434 103.272 37.1818 103.233 37.1945ZM94.7445 28.0282C93.7729 27.0183 92.7501 26.0467 91.7018 25.1262C91.1649 24.6532 91.1138 23.835 91.5868 23.2981C92.0598 22.7611 92.878 22.71 93.4149 23.183C94.5144 24.1546 95.5882 25.1773 96.611 26.2384C97.1096 26.7498 97.0968 27.5808 96.5726 28.0666C96.5343 28.1049 96.4959 28.1305 96.4576 28.1689C95.9334 28.5524 95.2047 28.514 94.7445 28.0282ZM86.2685 20.9969C85.1052 20.2298 83.8907 19.5139 82.6634 18.8491C82.0369 18.504 81.794 17.7241 82.1392 17.0977C82.4844 16.4713 83.2642 16.2284 83.8907 16.5735C85.1819 17.2767 86.4603 18.0309 87.6876 18.8364C88.2884 19.2327 88.4546 20.0381 88.0583 20.6261C87.9688 20.754 87.8666 20.8563 87.7515 20.9458C87.3424 21.2654 86.7415 21.3037 86.2685 20.9969ZM76.4502 16.0366C75.1462 15.5508 73.7911 15.1161 72.4488 14.7454C71.7584 14.5536 71.3493 13.8377 71.5411 13.1474C71.7328 12.457 72.4488 12.0479 73.1391 12.2397C74.5582 12.636 75.9644 13.0834 77.3451 13.5948C78.0227 13.8377 78.3551 14.592 78.1122 15.2568C78.0227 15.4997 77.8693 15.6914 77.6775 15.8448C77.3451 16.1133 76.8849 16.2028 76.4502 16.0366ZM65.7626 13.3903C64.3819 13.2113 62.9756 13.0834 61.5821 13.0195C60.8662 12.9812 60.3165 12.3803 60.3421 11.6644C60.3804 10.9485 60.9813 10.3988 61.6972 10.4243C63.1674 10.4882 64.6504 10.6289 66.095 10.8206C66.8109 10.9101 67.3095 11.5621 67.2072 12.278C67.1561 12.636 66.9771 12.9428 66.7086 13.1474C66.453 13.3391 66.1206 13.4414 65.7626 13.3903ZM54.7554 13.1729C53.3619 13.3008 51.9684 13.4925 50.5877 13.7354C49.8846 13.8633 49.207 13.3903 49.0792 12.6871C48.9513 11.984 49.4243 11.3064 50.1275 11.1786C51.5721 10.9229 53.0423 10.7184 54.5125 10.5905C55.2284 10.5266 55.8548 11.0507 55.9187 11.7667C55.9571 12.2269 55.7525 12.6616 55.4074 12.9172C55.2284 13.0579 55.0111 13.1474 54.7554 13.1729ZM14.2677 39.2528C13.6412 38.9076 13.3983 38.1278 13.7435 37.4886C14.4466 36.1974 15.2009 34.9189 16.0191 33.6916C16.4154 33.0908 17.2208 32.9246 17.8217 33.3209C18.4225 33.7172 18.5887 34.5226 18.1924 35.1107C17.4254 36.2741 16.6967 37.4886 16.0319 38.7159C15.9424 38.8821 15.8146 39.0227 15.6739 39.1377C15.2776 39.4446 14.7279 39.4957 14.2677 39.2528ZM43.9782 15.3974C42.6487 15.8321 41.3319 16.3306 40.0535 16.8676C39.3887 17.1488 38.6344 16.842 38.3532 16.1772C38.0719 15.5124 38.3787 14.7582 39.0435 14.4769C40.3987 13.9016 41.7921 13.3775 43.1856 12.93C43.8632 12.7127 44.6047 13.0834 44.822 13.761C45.001 14.2979 44.7964 14.8732 44.3746 15.1928C44.2467 15.2823 44.1189 15.3463 43.9782 15.3974ZM20.4936 29.818C19.9567 29.345 19.9055 28.5268 20.3785 27.9899C21.3501 26.8904 22.3729 25.8166 23.434 24.7938C23.9453 24.2952 24.7763 24.3208 25.2621 24.8322C25.7607 25.3435 25.7351 26.1745 25.2238 26.6603C24.2138 27.6319 23.2422 28.6419 22.3089 29.6902C22.245 29.7541 22.1811 29.818 22.1172 29.8692C21.6569 30.2399 20.9666 30.2271 20.4936 29.818ZM33.981 19.9742C32.792 20.6901 31.6031 21.4699 30.4781 22.2881C29.9028 22.71 29.0846 22.5821 28.6627 21.9941C28.2536 21.4188 28.3687 20.6261 28.9312 20.2043C28.944 20.2043 28.944 20.1915 28.9568 20.1915C30.1457 19.3222 31.3858 18.504 32.6386 17.7497C33.2523 17.3789 34.0449 17.5835 34.4156 18.1971C34.7608 18.7724 34.6074 19.5011 34.0832 19.8974C34.0577 19.923 34.0193 19.9486 33.981 19.9742Z" fill="#91B3FA"/>
<path opacity="0.3" d="M12.0816 47.5114C12.2861 47.358 12.4395 47.1406 12.529 46.885C12.7336 46.2458 12.9637 45.6065 13.1938 44.9801C13.4495 44.3025 13.1043 43.5611 12.4267 43.3182C11.7492 43.0625 11.0077 43.4076 10.7648 44.0852C10.5219 44.75 10.279 45.4276 10.0617 46.0923C9.84432 46.7699 10.2151 47.5114 10.8926 47.7287C11.3145 47.8438 11.7492 47.7543 12.0816 47.5114Z" fill="#91B3FA"/>
</g>
<g opacity="0.3">
<path opacity="0.3" d="M15.4823 86.8997C15.9809 86.5162 16.1471 85.8259 15.8403 85.2634C15.5207 84.6753 15.2139 84.0616 14.9326 83.4608C14.6258 82.8088 13.846 82.5403 13.2068 82.8599C12.5548 83.1667 12.2863 83.9466 12.6059 84.5858C12.9127 85.225 13.2323 85.8642 13.5647 86.4906C13.8971 87.1171 14.6897 87.36 15.3162 87.0276C15.3673 86.9764 15.4312 86.9381 15.4823 86.8997Z" fill="#91B3FA"/>
<path opacity="0.3" d="M88.4677 104.989C87.8796 105.399 87.0742 105.245 86.6651 104.644C86.256 104.056 86.4094 103.251 87.0103 102.842C88.1353 102.075 89.2475 101.244 90.3214 100.374C90.8711 99.9269 91.6893 100.004 92.1496 100.566C92.6098 101.129 92.5203 101.934 91.9578 102.394C91.4848 102.778 91.0245 103.149 90.5387 103.507C89.8612 104.005 89.158 104.516 88.4677 104.989ZM95.2945 97.6257C94.7703 97.1399 94.7448 96.309 95.2306 95.7976C96.1766 94.8004 97.0843 93.7393 97.928 92.6655C98.3755 92.103 99.1937 92.0135 99.7562 92.4481C100.319 92.8956 100.408 93.7138 99.9735 94.2635C99.0786 95.4013 98.1198 96.5007 97.1354 97.5618C97.0843 97.613 97.0331 97.6641 96.9692 97.7152C96.4578 98.0988 95.7547 98.0732 95.2945 97.6257ZM82.3696 108.569C81.0784 109.208 79.7361 109.809 78.3937 110.346C77.7289 110.615 76.9747 110.282 76.7062 109.617C76.4377 108.953 76.7701 108.198 77.4349 107.93C78.7133 107.418 79.979 106.856 81.2062 106.242C81.8455 105.923 82.6253 106.178 82.9449 106.83C83.2262 107.393 83.06 108.07 82.5742 108.441C82.5102 108.48 82.4463 108.531 82.3696 108.569ZM102.185 88.9069C101.572 88.5489 101.367 87.7435 101.725 87.1299C102.415 85.9409 103.08 84.7137 103.668 83.4864C103.975 82.8344 104.755 82.5659 105.394 82.8727C106.046 83.1795 106.315 83.9594 106.008 84.5986C105.381 85.9026 104.691 87.1938 103.962 88.4339C103.873 88.5873 103.758 88.7151 103.63 88.8046C103.221 89.1242 102.645 89.1754 102.185 88.9069ZM71.6692 112.481C70.2629 112.826 68.8311 113.107 67.3993 113.338C66.6961 113.453 66.0313 112.967 65.9163 112.264C65.8012 111.561 66.287 110.896 66.9902 110.781C68.3453 110.563 69.7132 110.295 71.0428 109.963C71.7331 109.796 72.4362 110.218 72.6152 110.909C72.7431 111.433 72.5385 111.944 72.1422 112.251C72.0016 112.366 71.8354 112.443 71.6692 112.481ZM60.3679 113.964C58.9233 113.99 57.4659 113.964 56.0213 113.875C55.3054 113.823 54.7684 113.21 54.8068 112.494C54.8579 111.778 55.4715 111.241 56.1875 111.279C57.5554 111.369 58.9489 111.394 60.3168 111.369C61.0327 111.356 61.6208 111.919 61.6336 112.634C61.6463 113.069 61.4418 113.453 61.1222 113.696C60.9049 113.862 60.6492 113.951 60.3679 113.964ZM49.0027 112.941C47.5837 112.66 46.1646 112.302 44.7839 111.906C44.0936 111.701 43.6973 110.985 43.9018 110.295C44.1064 109.605 44.8223 109.208 45.5126 109.413C46.8294 109.796 48.1845 110.129 49.5269 110.397C50.23 110.538 50.6775 111.228 50.5368 111.931C50.4729 112.251 50.2939 112.519 50.051 112.711C49.757 112.916 49.3862 113.018 49.0027 112.941ZM38.1489 109.464C36.8321 108.876 35.5153 108.224 34.2497 107.521C33.6233 107.176 33.3932 106.383 33.7383 105.757C34.0835 105.13 34.8761 104.9 35.5026 105.245C36.7043 105.91 37.9443 106.524 39.1972 107.086C39.8492 107.38 40.1432 108.147 39.8492 108.799C39.7597 109.004 39.6191 109.17 39.4529 109.298C39.0949 109.592 38.5963 109.656 38.1489 109.464ZM28.305 103.685C27.1544 102.816 26.0166 101.896 24.93 100.937C24.393 100.464 24.3419 99.6457 24.8277 99.1087C25.3007 98.5718 26.1189 98.5207 26.6559 99.0065C27.6786 99.9141 28.7653 100.796 29.8519 101.614C30.4272 102.049 30.5423 102.855 30.1076 103.43C30.0309 103.532 29.9414 103.622 29.8519 103.685C29.4173 104.018 28.778 104.031 28.305 103.685ZM19.9825 95.8871C19.2921 95.0817 18.6146 94.2379 17.9754 93.3942C17.7452 93.0873 17.5151 92.7805 17.285 92.4737C16.8631 91.8984 16.9782 91.0802 17.579 90.6583C18.1543 90.2365 18.9725 90.3643 19.3944 90.9524C19.6117 91.2464 19.8291 91.5405 20.0464 91.8345C20.66 92.6399 21.2993 93.4325 21.9513 94.1996C22.4115 94.7493 22.3604 95.5675 21.8106 96.0277C21.7851 96.0405 21.7723 96.0661 21.7467 96.0789C21.2098 96.488 20.4299 96.4112 19.9825 95.8871Z" fill="#91B3FA"/>
<path opacity="0.3" d="M108.181 78.6411C108.385 78.4877 108.551 78.2703 108.628 78.0019C108.845 77.3371 109.05 76.6467 109.229 75.9692C109.421 75.2788 109.012 74.5629 108.321 74.3711C107.631 74.1794 106.915 74.5885 106.723 75.2788C106.544 75.9308 106.353 76.5828 106.148 77.2093C105.931 77.8868 106.301 78.6155 106.992 78.8456C107.414 78.9735 107.848 78.884 108.181 78.6411Z" fill="#91B3FA"/>
</g>
<path d="M98.0174 58.8639C98.0302 58.6082 97.8767 58.3653 97.6338 58.2758L90.7559 55.6167C90.0911 52.2416 88.8894 48.9305 87.1252 45.8623L90.5897 39.3551C90.7176 39.125 90.6792 38.8438 90.5002 38.652L84.4789 32.1704C84.2999 31.9786 84.0314 31.9275 83.7885 32.0297L77.0512 35.0213C74.1108 33.0397 70.902 31.5951 67.5781 30.6874L65.4303 23.6305C65.3536 23.3876 65.1363 23.2086 64.8678 23.1958L56.0211 22.8762C55.7654 22.8634 55.5225 23.0169 55.433 23.2598L52.7739 30.1377C49.3989 30.8025 46.0877 32.0042 43.0195 33.7684L36.5124 30.3039C36.2822 30.176 36.001 30.2144 35.8092 30.3934L29.3276 36.4147C29.1358 36.5937 29.0847 36.8622 29.187 37.1051L32.1785 43.8424C30.1969 46.7828 28.7523 49.9916 27.8446 53.3155L20.7877 55.4633C20.5448 55.54 20.3658 55.7573 20.3531 56.0258L20.0335 64.8725C20.0207 65.1282 20.1741 65.3711 20.417 65.4606L27.2949 68.1197C27.9597 71.4947 29.1614 74.8058 30.9256 77.8741L27.4611 84.3812C27.3333 84.6114 27.3716 84.8926 27.5506 85.0844L33.572 91.566C33.751 91.7577 34.0194 91.8089 34.2623 91.7066L40.9996 88.7151C43.94 90.6967 47.1488 92.1413 50.4728 93.049L52.6205 100.106C52.6972 100.349 52.9145 100.528 53.183 100.541L62.0297 100.86C62.2854 100.873 62.5283 100.72 62.6178 100.477L65.2769 93.5987C68.652 92.9339 71.9631 91.7322 75.0313 89.9679L81.5385 93.4325C81.7686 93.5603 82.0498 93.522 82.2416 93.343L88.7232 87.3216C88.915 87.1426 88.9661 86.8742 88.8638 86.6313L85.8723 79.894C87.8539 76.9536 89.2985 73.7447 90.2062 70.4208L97.2631 68.2731C97.506 68.1964 97.685 67.979 97.6978 67.7106L98.0174 58.8639Z" fill="#91B3FA"/>
<path d="M63.3081 69.6665C59.0126 72.0316 53.5921 70.4463 51.227 66.1508C50.0892 64.067 49.8208 61.6635 50.4855 59.3879C51.1503 57.1123 52.6589 55.2203 54.7427 54.0825C59.0382 51.7174 64.4587 53.3026 66.8238 57.5981C68.9716 61.5101 67.8593 66.3426 64.3948 68.9633C64.0624 69.219 63.7045 69.4619 63.3081 69.6665ZM52.4927 59.9632C51.9813 61.7147 52.1858 63.5556 53.0552 65.1536C54.8578 68.452 59.0126 69.6665 62.311 67.8511C65.6093 66.0485 66.8238 61.8936 65.0084 58.5953C63.2059 55.297 59.051 54.0825 55.7527 55.8978C55.4586 56.064 55.1646 56.243 54.9089 56.4476C53.7455 57.3169 52.9018 58.5442 52.4927 59.9632Z" fill="#BDD0FB"/>
<path d="M72.0268 79.3058C72.6148 78.8584 73.1901 78.3726 73.7526 77.8612C73.9316 77.695 74.0978 77.5288 74.264 77.3626C75.095 76.5316 75.862 75.6495 76.5524 74.7035C76.5652 74.6907 76.5652 74.6779 76.578 74.6651C76.6035 74.6268 76.6291 74.5884 76.6547 74.5501C76.7058 74.4734 76.7569 74.4095 76.8081 74.3327C76.9359 74.141 76.9231 73.8981 76.7953 73.7191C76.7569 73.6807 76.7186 73.6424 76.6802 73.604C76.4501 73.4378 76.1177 73.5018 75.9643 73.7319C75.1206 74.9464 74.1362 76.0714 73.0495 77.0814C67.6418 82.1056 60.2525 83.7036 53.5919 81.9777C49.8844 81.0189 46.4071 79.0246 43.6074 76.0203C43.1216 75.4961 42.6614 74.9464 42.2267 74.3839C39.3374 70.5742 37.8673 65.9207 38.0462 61.0883C38.2508 55.5271 40.6031 50.3751 44.6813 46.5909C53.0933 38.767 66.2994 39.2528 74.1234 47.6648C74.6092 48.189 75.0566 48.7259 75.4785 49.2884C77.3194 51.7174 78.6107 54.5299 79.2371 57.5087C79.2499 57.5854 79.2882 57.6493 79.3266 57.7132C79.4416 57.8666 79.6462 57.9561 79.8507 57.905C80.132 57.8411 80.311 57.5726 80.247 57.2913C79.5823 54.1592 78.2271 51.206 76.2967 48.662C75.8493 48.0739 75.3762 47.5114 74.8649 46.9617C66.6574 38.1278 52.7865 37.6292 43.9526 45.8367C39.6698 49.8126 37.2025 55.2203 36.9851 61.0627C36.8062 66.1508 38.3531 71.0216 41.3829 75.0231C41.8304 75.624 42.3162 76.1992 42.8275 76.749C46.8034 81.0317 52.2112 83.4991 58.0536 83.7164C63.1417 83.8954 68.0253 82.3357 72.0268 79.3058Z" fill="#BDD0FB"/>
<g opacity="0.3">
<path opacity="0.3" d="M159.253 37.6548C159.535 37.4502 159.65 37.0667 159.522 36.7343C159.279 36.0951 159.023 35.4559 158.742 34.8422C158.563 34.4331 158.09 34.2542 157.681 34.4459C157.272 34.6249 157.093 35.0979 157.285 35.507C157.553 36.0951 157.796 36.7087 158.026 37.3096C158.179 37.7187 158.64 37.936 159.062 37.7698C159.125 37.7315 159.202 37.6931 159.253 37.6548Z" fill="#91B3FA"/>
<path opacity="0.3" d="M156.479 32.1575C156.096 32.3877 155.61 32.2726 155.38 31.8891C154.804 30.9303 154.165 29.997 153.488 29.1149C153.347 28.9231 153.206 28.7441 153.053 28.5524C152.785 28.2072 152.836 27.6958 153.181 27.4274C153.513 27.1845 154.037 27.21 154.306 27.5552C154.459 27.747 154.613 27.9515 154.766 28.1433C155.469 29.0765 156.134 30.0609 156.748 31.0581C156.965 31.4161 156.876 31.8635 156.543 32.1064C156.53 32.132 156.505 32.1448 156.479 32.1575ZM150.343 25.5225C149.384 24.5765 148.348 23.6688 147.287 22.8506C146.942 22.5821 146.878 22.0836 147.147 21.7256C147.415 21.3804 147.914 21.3037 148.272 21.585C149.397 22.4543 150.471 23.3875 151.481 24.3847C151.8 24.6915 151.8 25.2029 151.493 25.5225C151.468 25.5481 151.442 25.5737 151.404 25.5992C151.084 25.8293 150.637 25.8038 150.343 25.5225ZM143.912 20.5622C142.749 19.8719 141.522 19.2582 140.282 18.7213C139.872 18.5423 139.694 18.0693 139.86 17.673C140.039 17.2639 140.512 17.0849 140.908 17.2511C142.212 17.8136 143.49 18.4656 144.718 19.1815C145.101 19.4116 145.229 19.8974 144.999 20.281C144.948 20.3705 144.871 20.4472 144.794 20.5111C144.552 20.7029 144.206 20.7412 143.912 20.5622ZM136.459 17.3406C135.155 16.9571 133.826 16.663 132.496 16.4457C132.061 16.369 131.767 15.9599 131.831 15.5252C131.908 15.0906 132.317 14.7965 132.752 14.8605C134.145 15.0906 135.551 15.4102 136.907 15.8065C137.328 15.9343 137.571 16.3818 137.456 16.8037C137.405 16.9699 137.303 17.1105 137.175 17.2128C136.97 17.3662 136.715 17.4173 136.459 17.3406ZM128.443 16.0366C127.088 15.9855 125.72 16.011 124.378 16.1261C123.943 16.1644 123.547 15.8321 123.509 15.3974C123.47 14.9627 123.803 14.5664 124.237 14.5281C125.644 14.413 127.075 14.3747 128.495 14.4258C128.942 14.4386 129.287 14.8093 129.262 15.2568C129.249 15.5124 129.134 15.7298 128.942 15.8704C128.814 15.9855 128.635 16.0494 128.443 16.0366ZM120.364 16.7142C119.047 16.9954 117.717 17.3534 116.452 17.788C116.03 17.9287 115.582 17.7113 115.429 17.2895C115.288 16.8676 115.506 16.4201 115.928 16.2667C117.27 15.8065 118.651 15.423 120.031 15.1289C120.466 15.0394 120.888 15.3207 120.977 15.7426C121.041 16.0622 120.913 16.369 120.671 16.548C120.581 16.6375 120.479 16.6886 120.364 16.7142ZM112.68 19.3477C111.466 19.9358 110.277 20.6134 109.139 21.3549C108.768 21.5978 108.27 21.4955 108.027 21.1247C107.784 20.754 107.886 20.2682 108.257 20.0125C109.446 19.2327 110.699 18.5295 111.964 17.9031C112.361 17.7113 112.847 17.8775 113.038 18.2739C113.205 18.619 113.102 19.0409 112.808 19.2582C112.783 19.3094 112.732 19.3349 112.68 19.3477ZM101.814 26.6475C101.494 26.3407 101.469 25.8421 101.775 25.5097C102.606 24.6148 103.501 23.7455 104.435 22.9273C104.575 22.7995 104.716 22.6844 104.856 22.5566C105.189 22.2625 105.7 22.3137 105.981 22.6588C106.263 22.9912 106.224 23.5026 105.879 23.7839C105.739 23.8989 105.611 24.014 105.483 24.129C104.588 24.9089 103.731 25.7398 102.939 26.5964C102.9 26.6347 102.875 26.6603 102.837 26.6859C102.542 26.9288 102.108 26.916 101.814 26.6475Z" fill="#91B3FA"/>
</g>
<g opacity="0.3">
<path opacity="0.3" d="M147.672 76.8769C146.547 77.7079 145.358 78.4749 144.156 79.1525C143.772 79.3698 143.287 79.2292 143.069 78.8457C142.852 78.4621 142.992 77.9763 143.376 77.759C144.527 77.107 145.664 76.3783 146.738 75.5857C147.096 75.3172 147.595 75.3939 147.863 75.7519C148.106 76.1099 148.029 76.6084 147.672 76.8769C147.684 76.8641 147.672 76.8769 147.672 76.8769ZM149.755 74.1539C149.449 73.8343 149.461 73.3229 149.794 73.0161C150.765 72.1084 151.686 71.124 152.542 70.1013C152.824 69.7689 153.335 69.7177 153.667 69.999C154.013 70.2802 154.051 70.7916 153.77 71.124C152.875 72.1979 151.903 73.2206 150.893 74.1794C150.868 74.205 150.855 74.2178 150.829 74.2306C150.51 74.4863 150.049 74.4479 149.755 74.1539ZM140.372 80.9934C139.081 81.5304 137.751 81.9778 136.409 82.3613C135.987 82.4764 135.539 82.2335 135.424 81.7988C135.309 81.377 135.552 80.9295 135.987 80.8145C137.265 80.4565 138.544 80.0218 139.771 79.5105C140.18 79.3443 140.653 79.536 140.819 79.9451C140.96 80.2903 140.845 80.6738 140.563 80.8912C140.5 80.9295 140.448 80.9679 140.372 80.9934ZM155.15 67.9919C154.78 67.749 154.677 67.2504 154.907 66.8796C155.623 65.7674 156.288 64.5912 156.863 63.3895C157.055 62.9932 157.541 62.827 157.937 63.0188C158.334 63.2106 158.5 63.6963 158.308 64.0927C157.707 65.3455 157.004 66.5856 156.25 67.749C156.199 67.8257 156.135 67.9024 156.058 67.9535C155.802 68.1581 155.444 68.1836 155.15 67.9919ZM132.305 83.2179C130.924 83.4224 129.518 83.5503 128.124 83.5886C127.677 83.6014 127.319 83.2562 127.306 82.8088C127.293 82.3613 127.639 82.0034 128.086 81.9906C129.416 81.9523 130.758 81.8372 132.075 81.6454C132.509 81.5815 132.919 81.8756 132.982 82.323C133.034 82.617 132.893 82.9111 132.676 83.0773C132.573 83.1412 132.445 83.2051 132.305 83.2179ZM123.944 83.448C122.55 83.3202 121.157 83.1028 119.802 82.8088C119.367 82.7193 119.099 82.2847 119.188 81.8628C119.278 81.4281 119.712 81.1596 120.147 81.2491C121.438 81.5304 122.781 81.7349 124.097 81.8628C124.532 81.9011 124.864 82.2974 124.826 82.7321C124.801 82.9622 124.685 83.1668 124.506 83.2946C124.34 83.4097 124.149 83.4736 123.944 83.448ZM115.762 81.671C114.445 81.2108 113.141 80.661 111.888 80.0474C111.492 79.8556 111.326 79.3698 111.518 78.9735C111.709 78.5772 112.195 78.411 112.592 78.6028C113.781 79.1909 115.021 79.7022 116.286 80.1497C116.708 80.2903 116.925 80.7505 116.785 81.1724C116.734 81.3258 116.631 81.4537 116.516 81.5432C116.299 81.7094 116.018 81.7605 115.762 81.671Z" fill="#91B3FA"/>
<path opacity="0.3" d="M159.638 60.5515C159.766 60.462 159.855 60.3341 159.906 60.1679C160.124 59.5159 160.328 58.864 160.507 58.212C160.622 57.7901 160.379 57.3426 159.945 57.2276C159.523 57.1125 159.075 57.3554 158.96 57.7901C158.794 58.4037 158.602 59.0429 158.385 59.6566C158.244 60.0785 158.462 60.5259 158.884 60.6665C159.165 60.7688 159.433 60.7177 159.638 60.5515Z" fill="#91B3FA"/>
</g>
<path d="M153.079 46.7956C153.079 46.6166 152.977 46.4632 152.823 46.3993L148.221 44.6223C147.773 42.3595 146.968 40.1478 145.792 38.0895L148.106 33.7301C148.183 33.5767 148.157 33.3849 148.042 33.2571L144.015 28.9232C143.9 28.7954 143.708 28.757 143.555 28.8337L139.042 30.8281C137.073 29.5113 134.925 28.5397 132.701 27.9261L131.256 23.2087C131.205 23.0425 131.052 22.9274 130.885 22.9274L124.966 22.7101C124.787 22.7101 124.634 22.8124 124.57 22.9658L122.793 27.5681C120.53 28.0155 118.319 28.821 116.26 29.9971L111.901 27.6832C111.747 27.6065 111.556 27.632 111.428 27.7471L107.094 31.7741C106.966 31.8892 106.928 32.0809 107.005 32.2343L108.999 36.7472C107.682 38.716 106.71 40.8637 106.097 43.0882L101.379 44.5328C101.213 44.5839 101.098 44.7373 101.098 44.9035L100.881 50.8226C100.881 51.0016 100.983 51.155 101.137 51.219L105.739 52.996C106.186 55.2588 106.992 57.4705 108.168 59.5287L105.854 63.8881C105.777 64.0416 105.803 64.2333 105.918 64.3612L109.945 68.695C110.06 68.8229 110.252 68.8612 110.405 68.7845L114.918 66.7902C116.887 68.1069 119.034 69.0785 121.259 69.6922L122.704 74.4096C122.755 74.5758 122.908 74.6908 123.074 74.6908L128.993 74.9082C129.172 74.9082 129.326 74.8059 129.39 74.6525L131.167 70.0502C133.43 69.6027 135.641 68.7973 137.699 67.6212L142.059 69.9351C142.212 70.0118 142.404 69.9862 142.532 69.8712L146.866 65.8441C146.994 65.7291 147.032 65.5373 146.955 65.3839L144.961 60.8711C146.278 58.9023 147.249 56.7545 147.863 54.5301L152.58 53.0855C152.747 53.0343 152.862 52.8809 152.862 52.7147L153.079 46.7956Z" fill="#91B3FA"/>
<path d="M129.902 54.1209C128.483 54.9007 126.846 55.0797 125.286 54.6323C123.727 54.1848 122.448 53.1493 121.669 51.7303C120.058 48.8027 121.132 45.1208 124.072 43.51C127 41.8992 130.694 42.973 132.292 45.9134C133.072 47.3325 133.251 48.9689 132.804 50.5285C132.433 51.7942 131.691 52.8808 130.656 53.6607C130.426 53.8141 130.17 53.9675 129.902 54.1209ZM123.088 50.9504C123.663 51.9987 124.609 52.753 125.747 53.0854C126.885 53.4178 128.099 53.2899 129.135 52.7146C130.183 52.1393 130.937 51.1933 131.27 50.0555C131.602 48.9177 131.474 47.7032 130.899 46.6677C129.723 44.5072 127 43.7273 124.852 44.9035C124.66 45.0057 124.468 45.1336 124.302 45.2614C122.563 46.5654 122.014 48.9944 123.088 50.9504Z" fill="#BDD0FB"/>
<path d="M135.961 60.8326C136.37 60.5258 136.754 60.1934 137.137 59.8482C137.892 59.1451 138.569 58.378 139.17 57.5343C139.196 57.4959 139.221 57.4576 139.247 57.4192C139.451 57.1252 139.438 56.7417 139.234 56.4732C139.183 56.4093 139.119 56.3453 139.055 56.2942C138.697 56.0385 138.198 56.128 137.943 56.4988C137.393 57.2786 136.767 58.0073 136.063 58.6593C136.025 58.6976 135.987 58.736 135.948 58.7616C134.274 60.2957 132.279 61.344 130.119 61.8809C128.955 62.1622 127.741 62.3028 126.514 62.2645C126.501 62.2645 126.488 62.2645 126.488 62.2645C126.462 62.2645 126.424 62.2645 126.399 62.2645C122.793 62.1366 119.469 60.6025 117.015 57.9689C116.695 57.6238 116.401 57.2786 116.12 56.9079C114.253 54.4405 113.295 51.4362 113.41 48.2913C113.538 44.6861 115.072 41.3622 117.705 38.9076C120.339 36.4531 123.778 35.1746 127.383 35.3025C130.988 35.4303 134.312 36.9644 136.767 39.598C137.073 39.9304 137.367 40.2883 137.649 40.6463C138.838 42.2188 139.669 44.0341 140.078 45.9645C140.103 46.0796 140.154 46.1947 140.218 46.2841C140.397 46.527 140.704 46.6549 141.024 46.5782C141.458 46.4887 141.727 46.0668 141.637 45.6321C141.177 43.4716 140.244 41.4389 138.914 39.6747C138.607 39.2656 138.275 38.8821 137.93 38.4985C135.181 35.5454 131.461 33.8451 127.421 33.6917C123.394 33.551 119.546 34.9701 116.593 37.7187C113.64 40.4673 111.94 44.1875 111.786 48.2146C111.658 51.7174 112.732 55.0925 114.816 57.8539C115.123 58.263 115.455 58.6593 115.813 59.0428C121.131 64.7829 129.876 65.4477 135.961 60.8326Z" fill="#BDD0FB"/>
<path d="M153.271 273.69L145.447 327.717H236.266L224.428 273.69H153.271Z" fill="url(#paint1_linear)"/>
<path d="M0.703613 100.719V261.507C0.703613 274.739 11.2378 285.554 24.4695 285.886C83.2004 287.395 288.605 291.077 344.51 290.246C354.124 290.105 361.897 282.409 362.178 272.808C363.252 235.453 365.004 145.631 358.522 103.928C357.154 95.1455 349.739 88.5744 340.867 88.2932C291.66 86.7207 73.919 81.7221 18.0391 82.9749C8.39973 83.205 0.703613 91.0801 0.703613 100.719Z" fill="url(#paint2_linear)"/>
<path d="M10.8032 99.9396V252.699C10.8032 260.42 17.0036 266.71 24.7253 266.825L336.469 270.673C344.127 270.788 350.404 264.626 350.43 256.969L350.954 105.577C350.979 100.106 346.607 95.6186 341.135 95.4779L21.9639 89.0347C15.8402 88.8941 10.8032 93.816 10.8032 99.9396Z" fill="#91B3FA"/>
<path d="M352.769 276.938L10.7902 271.108C10.5473 271.108 10.3555 270.903 10.3683 270.673C10.3683 270.43 10.5728 270.251 10.8029 270.251L352.782 276.081C353.024 276.081 353.216 276.286 353.203 276.516C353.203 276.746 353.012 276.938 352.769 276.938Z" fill="#91B3FA"/>
<path d="M185.155 284.058C182.956 284.058 181.166 282.269 181.166 280.07C181.166 277.871 182.956 276.081 185.155 276.081C187.354 276.081 189.143 277.871 189.143 280.07C189.143 282.269 187.354 284.058 185.155 284.058ZM185.155 276.937C183.429 276.937 182.035 278.344 182.035 280.07C182.035 281.795 183.442 283.202 185.155 283.202C186.868 283.202 188.287 281.795 188.287 280.07C188.287 278.344 186.881 276.937 185.155 276.937Z" fill="#91B3FA"/>
<path d="M255.826 342.073H122.909C119.303 342.073 116.58 339.504 117.284 336.742L118.984 329.992C119.495 327.959 121.732 326.476 124.379 326.387L252.515 322.385C255.289 322.296 257.731 323.766 258.345 325.876L261.426 336.614C262.219 339.427 259.495 342.073 255.826 342.073Z" fill="url(#paint3_linear)"/>
<path d="M194.462 328.228C194.231 328.228 194.027 328.036 194.027 327.806C194.027 327.563 194.219 327.371 194.449 327.371L199.946 327.295C200.176 327.295 200.381 327.486 200.381 327.717C200.381 327.959 200.189 328.151 199.959 328.151L194.462 328.228Z" fill="#91B3FA"/>
<path d="M122.205 338.353C122.18 338.353 122.154 338.353 122.141 338.353C121.911 338.315 121.745 338.097 121.783 337.854L122.563 332.945C122.985 330.312 125.222 328.369 127.894 328.33L186.139 327.474H186.152C186.382 327.474 186.587 327.665 186.587 327.896C186.587 328.138 186.395 328.33 186.165 328.33L127.92 329.187C125.67 329.225 123.778 330.849 123.433 333.073L122.653 337.982C122.589 338.2 122.41 338.353 122.205 338.353Z" fill="#91B3FA"/>
<g opacity="0.53">
<path opacity="0.53" d="M192.058 110.615H183.864V255.243H192.058V110.615Z" fill="white"/>
<path opacity="0.53" d="M205.763 110.615H197.568V255.243H205.763V110.615Z" fill="white"/>
<path opacity="0.53" d="M219.468 110.615H211.273V255.243H219.468V110.615Z" fill="white"/>
<path opacity="0.53" d="M233.16 110.615H224.965V255.243H233.16V110.615Z" fill="white"/>
<path opacity="0.53" d="M246.864 110.615H238.669V255.243H246.864V110.615Z" fill="white"/>
<path opacity="0.53" d="M260.569 110.615H252.375V255.243H260.569V110.615Z" fill="white"/>
<path opacity="0.53" d="M274.261 110.615H266.066V255.243H274.261V110.615Z" fill="white"/>
</g>
<path d="M192.058 179.547H183.864V255.23H192.058V179.547Z" fill="url(#paint4_linear)"/>
<path d="M205.763 205.563H197.568V255.243H205.763V205.563Z" fill="url(#paint5_linear)"/>
<path d="M219.468 141.271H211.273V255.23H219.468V141.271Z" fill="url(#paint6_linear)"/>
<path d="M233.16 227.859H224.965V255.243H233.16V227.859Z" fill="url(#paint7_linear)"/>
<path d="M246.865 156.51H238.67V255.243H246.865V156.51Z" fill="url(#paint8_linear)"/>
<path d="M260.569 173.602H252.375V255.23H260.569V173.602Z" fill="url(#paint9_linear)"/>
<path d="M274.261 192.191H266.066V255.243H274.261V192.191Z" fill="url(#paint10_linear)"/>
<path opacity="0.57" d="M48.6317 104.005C37.6245 104.005 28.7139 112.928 28.7139 123.923C28.7139 134.93 37.6373 143.841 48.6317 143.841C59.639 143.841 68.5496 134.917 68.5496 123.923C68.5496 112.928 59.639 104.005 48.6317 104.005ZM48.6317 135.275C42.3674 135.275 37.2793 130.2 37.2793 123.923C37.2793 117.658 42.3547 112.57 48.6317 112.57C54.896 112.57 59.9841 117.646 59.9841 123.923C59.9841 130.187 54.9088 135.275 48.6317 135.275Z" fill="white"/>
<path d="M79.979 119.551H20.8135V144.595H79.979V119.551Z" fill="url(#paint11_linear)"/>
<path opacity="0.57" d="M97.1991 104.005C86.1919 104.005 77.2812 112.928 77.2812 123.923C77.2812 134.93 86.2047 143.841 97.1991 143.841C108.206 143.841 117.117 134.917 117.117 123.923C117.117 112.928 108.194 104.005 97.1991 104.005ZM97.1991 135.275C90.9348 135.275 85.8467 130.2 85.8467 123.923C85.8467 117.658 90.922 112.57 97.1991 112.57C103.463 112.57 108.552 117.646 108.552 123.923C108.539 130.187 103.463 135.275 97.1991 135.275Z" fill="white"/>
<path d="M128.546 109.86H69.3809V144.582H128.546V109.86Z" fill="url(#paint12_linear)"/>
<path opacity="0.57" d="M145.754 104.005C134.747 104.005 125.836 112.928 125.836 123.923C125.836 134.93 134.759 143.841 145.754 143.841C156.761 143.841 165.672 134.917 165.672 123.923C165.672 112.928 156.748 104.005 145.754 104.005ZM145.754 135.275C139.49 135.275 134.401 130.2 134.401 123.923C134.401 117.658 139.477 112.57 145.754 112.57C152.018 112.57 157.106 117.646 157.106 123.923C157.106 130.187 152.018 135.275 145.754 135.275Z" fill="white"/>
<path d="M177.101 132.066H117.936V144.582H177.101V132.066Z" fill="url(#paint13_linear)"/>
<path opacity="0.44" d="M161.044 256.035L33.2651 255.076C30.7466 255.064 28.7139 253.005 28.7139 250.487V184.84C28.7139 182.309 30.7721 180.25 33.3034 180.25H161.082C163.613 180.25 165.672 182.309 165.672 184.84V251.446C165.672 254.003 163.6 256.061 161.044 256.035Z" fill="white"/>
<path opacity="0.44" d="M141.228 209.897L124.801 192.523L101.239 218.143L84.6197 200.206L69.0229 217.836L57.0697 203.313L33.5083 227.846V245.59C33.5083 247.93 35.4004 249.835 37.7399 249.86L156.582 250.755C158.947 250.768 160.878 248.863 160.878 246.485V198.225L141.228 209.897Z" fill="white"/>
<path d="M141.765 209.411H141.331V250.743H141.765V209.411Z" fill="white"/>
<path d="M125.018 192.523H124.583V250.5H125.018V192.523Z" fill="white"/>
<path d="M101.456 217.836H101.021V250.321H101.456V217.836Z" fill="white"/>
<path d="M85.2716 200.846H84.8369V250.321H85.2716V200.846Z" fill="white"/>
<path d="M69.2403 217.312H68.8057V250.333H69.2403V217.312Z" fill="white"/>
<path d="M57.5426 202.073H57.1079V250.001H57.5426V202.073Z" fill="white"/>
<path d="M57.3249 205.678C59.316 205.678 60.93 204.064 60.93 202.073C60.93 200.082 59.316 198.468 57.3249 198.468C55.3338 198.468 53.7197 200.082 53.7197 202.073C53.7197 204.064 55.3338 205.678 57.3249 205.678Z" fill="url(#paint14_linear)"/>
<path d="M71.4003 217.312C71.4003 218.628 70.3392 219.69 69.0224 219.69C67.7056 219.69 66.6445 218.628 66.6445 217.312C66.6445 215.995 67.7056 214.934 69.0224 214.934C70.3392 214.934 71.4003 215.995 71.4003 217.312Z" fill="url(#paint15_linear)"/>
<path d="M87.432 200.846C87.432 202.162 86.3709 203.224 85.0541 203.224C83.7374 203.224 82.6763 202.162 82.6763 200.846C82.6763 199.529 83.7374 198.468 85.0541 198.468C86.3709 198.468 87.432 199.529 87.432 200.846Z" fill="url(#paint16_linear)"/>
<path d="M103.617 217.836C103.617 219.153 102.556 220.214 101.239 220.214C99.9224 220.214 98.8613 219.153 98.8613 217.836C98.8613 216.519 99.9224 215.458 101.239 215.458C102.556 215.458 103.617 216.519 103.617 217.836Z" fill="url(#paint17_linear)"/>
<path d="M127.178 192.523C127.178 193.84 126.117 194.901 124.8 194.901C123.483 194.901 122.422 193.84 122.422 192.523C122.422 191.206 123.483 190.145 124.8 190.145C126.117 190.145 127.178 191.206 127.178 192.523Z" fill="url(#paint18_linear)"/>
<path d="M143.926 209.411C143.926 210.728 142.865 211.789 141.548 211.789C140.231 211.789 139.17 210.728 139.17 209.411C139.17 208.094 140.231 207.033 141.548 207.033C142.865 207.033 143.926 208.094 143.926 209.411Z" fill="url(#paint19_linear)"/>
<g opacity="0.48">
<path opacity="0.48" d="M65.6347 169.32H30.6059C29.1357 169.32 27.9468 170.151 27.9468 171.173C27.9468 172.196 29.1357 173.027 30.6059 173.027H65.6347C67.1049 173.027 68.2939 172.196 68.2939 171.173C68.2939 170.151 67.1049 169.32 65.6347 169.32Z" fill="white"/>
<path opacity="0.48" d="M65.6347 161.138H30.6059C29.1357 161.138 27.9468 161.969 27.9468 162.992C27.9468 164.014 29.1357 164.845 30.6059 164.845H65.6347C67.1049 164.845 68.2939 164.014 68.2939 162.992C68.2939 161.969 67.1049 161.138 65.6347 161.138Z" fill="white"/>
<path opacity="0.48" d="M65.6352 152.956H30.6064C29.1362 152.956 27.9473 153.787 27.9473 154.81C27.9473 155.832 29.1362 156.663 30.6064 156.663H65.6352C67.1054 156.663 68.2943 155.832 68.2943 154.81C68.2943 153.787 67.1054 152.956 65.6352 152.956Z" fill="white"/>
</g>
<g opacity="0.48">
<path opacity="0.48" d="M114.33 169.32H79.3012C77.831 169.32 76.6421 170.151 76.6421 171.174C76.6421 172.196 77.831 173.027 79.3012 173.027H114.33C115.8 173.027 116.989 172.196 116.989 171.174C116.976 170.151 115.787 169.32 114.33 169.32Z" fill="white"/>
<path opacity="0.48" d="M114.33 161.138H79.3012C77.831 161.138 76.6421 161.969 76.6421 162.992C76.6421 164.014 77.831 164.845 79.3012 164.845H114.33C115.8 164.845 116.989 164.014 116.989 162.992C116.989 161.969 115.787 161.138 114.33 161.138Z" fill="white"/>
<path opacity="0.48" d="M114.33 152.956H79.3007C77.8305 152.956 76.6416 153.787 76.6416 154.81C76.6416 155.832 77.8305 156.663 79.3007 156.663H114.33C115.8 156.663 116.989 155.832 116.989 154.81C116.976 153.787 115.787 152.956 114.33 152.956Z" fill="white"/>
</g>
<g opacity="0.48">
<path opacity="0.48" d="M163.012 169.32H127.983C126.513 169.32 125.324 170.151 125.324 171.173C125.324 172.196 126.513 173.027 127.983 173.027H163.012C164.482 173.027 165.671 172.196 165.671 171.173C165.671 170.151 164.482 169.32 163.012 169.32Z" fill="white"/>
<path opacity="0.48" d="M163.012 161.138H127.983C126.513 161.138 125.324 161.969 125.324 162.992C125.324 164.014 126.513 164.845 127.983 164.845H163.012C164.482 164.845 165.671 164.014 165.671 162.992C165.671 161.969 164.482 161.138 163.012 161.138Z" fill="white"/>
<path opacity="0.48" d="M163.014 152.956H127.985C126.515 152.956 125.326 153.787 125.326 154.81C125.326 155.832 126.515 156.663 127.985 156.663H163.014C164.484 156.663 165.673 155.832 165.673 154.81C165.673 153.787 164.484 152.956 163.014 152.956Z" fill="white"/>
</g>
<path d="M311.221 193.226C320.173 193.226 327.431 185.968 327.431 177.016C327.431 168.063 320.173 160.805 311.221 160.805C302.268 160.805 295.01 168.063 295.01 177.016C295.01 185.968 302.268 193.226 311.221 193.226Z" fill="url(#paint20_linear)"/>
<path d="M320.847 173.589C321.346 174.804 321.627 176.146 321.627 177.54C321.627 183.293 316.961 187.946 311.221 187.946C305.468 187.946 300.814 183.28 300.814 177.54C300.814 171.787 305.481 167.133 311.221 167.133C311.4 167.133 311.566 167.133 311.745 167.146V164.513C311.566 164.5 311.4 164.5 311.221 164.5C304.01 164.5 298.168 170.342 298.168 177.553C298.168 184.763 304.01 190.605 311.221 190.605C318.431 190.605 324.273 184.763 324.273 177.553C324.273 175.776 323.915 174.088 323.276 172.541L320.847 173.589Z" fill="#91B3FA"/>
<path opacity="0.5" d="M324.542 200.078H298.13C296.468 200.078 295.125 201.421 295.125 203.083C295.125 204.745 296.468 206.087 298.13 206.087H324.542C326.204 206.087 327.546 204.745 327.546 203.083C327.534 201.421 326.191 200.078 324.542 200.078Z" fill="white"/>
<path d="M311.144 141.13C320.096 141.13 327.354 133.873 327.354 124.92C327.354 115.967 320.096 108.71 311.144 108.71C302.191 108.71 294.933 115.967 294.933 124.92C294.933 133.873 302.191 141.13 311.144 141.13Z" fill="url(#paint21_linear)"/>
<path d="M316.653 134.252C315.043 135.262 313.15 135.85 311.105 135.85C305.352 135.85 300.699 131.184 300.699 125.444C300.699 119.691 305.365 115.038 311.105 115.038C311.284 115.038 311.45 115.038 311.629 115.051V112.417C311.45 112.404 311.284 112.404 311.105 112.404C303.895 112.404 298.052 118.247 298.052 125.457C298.052 132.667 303.895 138.51 311.105 138.51C313.623 138.51 315.963 137.794 317.957 136.566L316.653 134.252Z" fill="#91B3FA"/>
<path opacity="0.5" d="M324.605 147.995H298.193C296.531 147.995 295.189 149.338 295.189 151C295.189 152.662 296.531 154.004 298.193 154.004H324.605C326.267 154.004 327.61 152.662 327.61 151C327.61 149.338 326.267 147.995 324.605 147.995Z" fill="white"/>
<path opacity="0.91" d="M322.73 240.831C329.06 234.501 329.06 224.237 322.73 217.907C316.399 211.576 306.136 211.576 299.805 217.907C293.475 224.237 293.475 234.501 299.805 240.831C306.136 247.162 316.399 247.162 322.73 240.831Z" fill="white"/>
<path d="M320.106 235.222C318.226 237.971 315.082 239.773 311.502 239.773C305.749 239.773 301.096 235.107 301.096 229.367C301.096 223.614 305.762 218.961 311.502 218.961C311.681 218.961 311.847 218.961 312.026 218.973V216.34C311.847 216.327 311.681 216.327 311.502 216.327C304.292 216.327 298.449 222.169 298.449 229.38C298.449 236.59 304.292 242.432 311.502 242.432C315.964 242.432 319.888 240.195 322.253 236.782L320.106 235.222Z" fill="url(#paint22_linear)"/>
<path opacity="0.5" d="M298.065 257.914H324.478C326.14 257.914 327.482 256.572 327.482 254.91C327.482 253.248 326.14 251.906 324.478 251.906H298.065C296.403 251.906 295.061 253.248 295.061 254.91C295.061 256.572 296.403 257.914 298.065 257.914Z" fill="white"/>
<path d="M316.858 346.241C316.858 346.241 317.561 350.204 317.906 354.116C318.034 355.65 316.858 356.98 315.324 357.044C310.108 357.261 298.934 357.683 294.933 357.504C294.332 357.478 293.936 356.865 294.166 356.302C294.358 355.829 294.716 355.458 295.176 355.241L313.624 346.765L316.858 346.241Z" fill="url(#paint23_linear)"/>
<path d="M317.433 343.914L316.871 348.644C316.871 348.644 313.636 350.153 311.438 348.453L312.78 343.173L317.433 343.914Z" fill="url(#paint24_linear)"/>
<path d="M317.012 254.872C317.255 256.112 318.316 316.594 311.847 343.697C311.745 344.144 311.962 344.592 312.384 344.771C313.381 345.18 315.324 345.768 317.651 345.845C318.367 345.87 319.019 345.397 319.223 344.707C321.077 338.417 329.924 306.904 331.087 276.81C332.378 243.174 331.087 275.659 331.087 275.659L330.333 254.872H317.012Z" fill="url(#paint25_linear)"/>
<path d="M338.08 348.312C338.08 348.312 339.192 350.306 340.266 355.624C340.458 356.583 339.793 357.504 338.822 357.593C337.096 357.759 334.449 357.977 332.314 357.964C331.33 357.951 330.576 357.107 330.691 356.136C330.921 354.193 331.662 351.022 333.925 348.542L338.08 348.312Z" fill="url(#paint26_linear)"/>
<path d="M339.064 342.214L337.748 349.373C337.748 349.373 336.444 350.345 333.887 349.641L334.513 341.933L339.064 342.214Z" fill="url(#paint27_linear)"/>
<path d="M342.606 256.726C347.898 288.635 341.455 335.604 339.294 344.796C339.167 345.359 338.706 345.793 338.131 345.883C337.16 346.049 335.561 346.177 333.989 345.717C333.452 345.563 333.069 345.065 333.043 344.502C332.749 337.075 333.273 291.448 328.351 273.422C328.095 272.514 327.546 271.709 326.766 271.159L317.203 264.358L316.475 253.363L342.606 256.726Z" fill="url(#paint28_linear)"/>
<path d="M308.906 196.256C324.759 196 342.235 200.411 342.235 200.411C346.952 227.974 343.066 259.768 343.066 259.768C330.793 262.99 316.96 257.799 316.96 257.799C314.915 246.281 305.403 213.86 305.403 213.86C297.656 212.901 291.277 210.664 286.035 207.711C290.037 203.07 291.929 197.151 292.747 193.661C298.346 195.4 304.023 196.333 308.906 196.256Z" fill="url(#paint29_linear)"/>
<path d="M262.103 172.912C263.663 171.033 265.631 171.928 265.631 171.928C267.958 181.784 280.193 189.762 292.76 193.674C291.941 197.164 290.049 203.083 286.048 207.724C265.184 195.988 262.103 172.912 262.103 172.912Z" fill="url(#paint30_linear)"/>
<path d="M262.474 173.385C262.308 173.909 264.2 174.689 265.312 172.58C265.35 171.57 265.964 167.21 265.363 166.392C262.129 161.994 255.864 156.472 255.864 156.472C254.803 157.52 255.673 158.543 255.673 158.543L258.715 161.713C258.076 162.864 257.309 163.835 256.938 165.216C256.657 166.264 256.836 167.389 257.36 168.348C257.897 169.307 258.626 170.56 259.303 171.531C260.62 173.372 262.474 173.385 262.474 173.385Z" fill="url(#paint31_linear)"/>
<path d="M260.045 163.746L262.819 166.098L263.688 168.438L261.221 171.173C261.221 171.173 260.39 166.533 259.776 165.536C259.15 164.526 259.469 164.04 260.045 163.746Z" fill="url(#paint32_linear)"/>
<path d="M336.163 215.752L342.235 200.411C342.235 200.411 357.039 210.472 359.468 223.218C356.669 223.423 351.58 224.151 346.595 226.67C345.521 220.648 336.163 215.752 336.163 215.752Z" fill="url(#paint33_linear)"/>
<path d="M323.225 230.198C323.225 230.198 339.844 239.595 345.457 231.566C346.62 229.904 346.901 228.242 346.607 226.67C351.593 224.151 356.681 223.423 359.481 223.218C360.21 227.066 359.826 231.157 357.563 235.286C347.745 253.248 321.026 234.289 321.026 234.289L323.225 230.198Z" fill="url(#paint34_linear)"/>
<path d="M325.232 242.075L316.168 210.396C316.066 210.038 315.759 209.769 315.389 209.731C313.739 209.539 308.984 209.002 303.486 208.542C296.864 207.979 289.168 207.532 284.578 207.915C283.926 207.967 283.53 208.657 283.824 209.245C286.432 214.538 297.184 236.041 302.566 243.085C302.745 243.315 303.026 243.456 303.32 243.456L324.363 243.264C324.951 243.251 325.399 242.663 325.232 242.075Z" fill="url(#paint35_linear)"/>
<path d="M302.528 205.793L295.957 204.694C295.612 204.63 295.318 204.975 295.433 205.307L296.085 207.276C296.136 207.442 296.289 207.57 296.468 207.596L302.796 208.44C303.129 208.478 303.397 208.184 303.32 207.864L302.911 206.138C302.873 205.972 302.72 205.832 302.528 205.793Z" fill="url(#paint36_linear)"/>
<path d="M307.449 211.367L306.912 208.542C306.861 208.261 306.618 208.043 306.337 208.018L293.054 206.675C292.607 206.624 292.249 207.033 292.351 207.481L293.195 210.996C293.259 211.278 293.502 211.482 293.796 211.495L306.772 212.147C307.206 212.16 307.539 211.776 307.449 211.367Z" fill="url(#paint37_linear)"/>
<path d="M323.033 234.43C323.033 234.43 324.299 229.24 323.787 227.386C323.276 225.545 322.292 223.167 318.993 223.704C315.708 224.228 311.821 225.622 311.821 225.622C311.821 225.622 312.013 228.025 314.519 227.245L312.972 228.447C312.972 228.447 313.189 230.365 315.311 229.342L313.867 230.94C313.867 230.94 314.774 232.512 316.334 231.502C317.881 230.48 318.623 235.056 323.033 234.43Z" fill="url(#paint38_linear)"/>
<path d="M324.963 183.382L330 197.969C330.09 198.212 329.987 198.481 329.757 198.596C328.376 199.35 323.429 201.549 317.459 197.765C316.832 197.368 316.41 196.729 316.321 196L314.685 183.382H324.963Z" fill="url(#paint39_linear)"/>
<path d="M313.675 168.323C313.521 168.527 308.778 185.044 308.778 185.044L318.264 187.55L325.078 172.567C325.091 172.567 316.219 164.794 313.675 168.323Z" fill="url(#paint40_linear)"/>
<path d="M321.32 173.679C321.55 174.05 321.601 174.51 321.448 174.919L318.52 182.973C318.482 183.101 318.418 183.203 318.341 183.318C317.919 183.894 316.424 185.632 314.698 183.996C313.227 182.602 311.847 181.35 310.568 180.966C309.814 180.749 309.034 181.183 308.817 181.938C308.382 183.485 307.551 186.642 307.219 189.532C307.129 190.26 307.628 190.925 308.344 191.066C310.236 191.436 313.956 192.05 317.127 191.884C317.651 191.858 318.111 191.539 318.328 191.078C319.3 189.007 322.049 183.203 323.084 181.682C324.043 180.276 326.319 180.289 327.354 180.391C327.75 180.429 328.134 180.301 328.428 180.033C329.31 179.24 330.767 177.399 328.671 175.175C328.147 174.625 328.185 173.743 328.735 173.206C329.706 172.26 330.652 170.636 329.067 168.629C327.456 166.597 325.334 166.801 323.953 167.249C323.34 167.453 322.637 167.236 322.279 166.699C322.125 166.456 321.87 166.277 321.461 166.277C320.681 166.264 320.067 165.689 320.067 164.909C320.067 163.58 319.556 161.956 317.306 161.227C313.164 159.898 310.53 163.886 310.249 166.878C309.967 169.869 314.531 171.058 317.229 170.879C319.211 170.752 320.681 172.656 321.32 173.679Z" fill="url(#paint41_linear)"/>
<path d="M321.972 184.648C321.972 184.648 322.688 179.458 324.861 179.215C327.022 178.985 329.119 180.774 326.932 183.676C324.222 187.282 321.972 184.648 321.972 184.648Z" fill="url(#paint42_linear)"/>
<defs>
<linearGradient id="paint0_linear" x1="386.117" y1="396.848" x2="144.783" y2="139.944" gradientUnits="userSpaceOnUse">
<stop stop-color="#DAE3FE"/>
<stop offset="1" stop-color="#E9EFFD"/>
</linearGradient>
<linearGradient id="paint1_linear" x1="205.7" y1="254.158" x2="171.451" y2="399.936" gradientUnits="userSpaceOnUse">
<stop stop-color="#09005D"/>
<stop offset="1" stop-color="#1A0F91"/>
</linearGradient>
<linearGradient id="paint2_linear" x1="188.703" y1="13.4881" x2="177.287" y2="285.723" gradientUnits="userSpaceOnUse">
<stop stop-color="#09005D"/>
<stop offset="1" stop-color="#1A0F91"/>
</linearGradient>
<linearGradient id="paint3_linear" x1="187.699" y1="236.067" x2="189.455" y2="343.205" gradientUnits="userSpaceOnUse">
<stop stop-color="#09005D"/>
<stop offset="1" stop-color="#1A0F91"/>
</linearGradient>
<linearGradient id="paint4_linear" x1="201.851" y1="190.299" x2="238.295" y2="119.167" gradientUnits="userSpaceOnUse">
<stop stop-color="#4F52FF"/>
<stop offset="1" stop-color="#4042E2"/>
</linearGradient>
<linearGradient id="paint5_linear" x1="217.98" y1="198.564" x2="254.425" y2="127.431" gradientUnits="userSpaceOnUse">
<stop stop-color="#4F52FF"/>
<stop offset="1" stop-color="#4042E2"/>
</linearGradient>
<linearGradient id="paint6_linear" x1="215.788" y1="197.44" x2="252.233" y2="126.307" gradientUnits="userSpaceOnUse">
<stop stop-color="#4F52FF"/>
<stop offset="1" stop-color="#4042E2"/>
</linearGradient>
<linearGradient id="paint7_linear" x1="244.209" y1="212.001" x2="280.653" y2="140.869" gradientUnits="userSpaceOnUse">
<stop stop-color="#4F52FF"/>
<stop offset="1" stop-color="#4042E2"/>
</linearGradient>
<linearGradient id="paint8_linear" x1="240.583" y1="210.144" x2="277.028" y2="139.011" gradientUnits="userSpaceOnUse">
<stop stop-color="#4F52FF"/>
<stop offset="1" stop-color="#4042E2"/>
</linearGradient>
<linearGradient id="paint9_linear" x1="254.904" y1="217.481" x2="291.348" y2="146.348" gradientUnits="userSpaceOnUse">
<stop stop-color="#4F52FF"/>
<stop offset="1" stop-color="#4042E2"/>
</linearGradient>
<linearGradient id="paint10_linear" x1="269.526" y1="224.972" x2="305.97" y2="153.84" gradientUnits="userSpaceOnUse">
<stop stop-color="#4F52FF"/>
<stop offset="1" stop-color="#4042E2"/>
</linearGradient>
<linearGradient id="paint11_linear" x1="134.628" y1="7.23912" x2="24.4168" y2="170.58" gradientUnits="userSpaceOnUse">
<stop stop-color="#FF928E"/>
<stop offset="1" stop-color="#FE7062"/>
</linearGradient>
<linearGradient id="paint12_linear" x1="165.751" y1="28.2392" x2="55.5397" y2="191.581" gradientUnits="userSpaceOnUse">
<stop stop-color="#FF928E"/>
<stop offset="1" stop-color="#FE7062"/>
</linearGradient>
<linearGradient id="paint13_linear" x1="204.265" y1="54.2252" x2="94.0532" y2="217.566" gradientUnits="userSpaceOnUse">
<stop stop-color="#FF928E"/>
<stop offset="1" stop-color="#FE7062"/>
</linearGradient>
<linearGradient id="paint14_linear" x1="60.3405" y1="192.946" x2="45.1915" y2="238.746" gradientUnits="userSpaceOnUse">
<stop stop-color="#FEBBBA"/>
<stop offset="1" stop-color="#FF928E"/>
</linearGradient>
<linearGradient id="paint15_linear" x1="71.0125" y1="211.292" x2="61.0329" y2="241.463" gradientUnits="userSpaceOnUse">
<stop stop-color="#FEBBBA"/>
<stop offset="1" stop-color="#FF928E"/>
</linearGradient>
<linearGradient id="paint16_linear" x1="87.0453" y1="194.83" x2="77.0657" y2="225" gradientUnits="userSpaceOnUse">
<stop stop-color="#FEBBBA"/>
<stop offset="1" stop-color="#FF928E"/>
</linearGradient>
<linearGradient id="paint17_linear" x1="103.228" y1="211.819" x2="93.2481" y2="241.989" gradientUnits="userSpaceOnUse">
<stop stop-color="#FEBBBA"/>
<stop offset="1" stop-color="#FF928E"/>
</linearGradient>
<linearGradient id="paint18_linear" x1="126.787" y1="186.507" x2="116.807" y2="216.678" gradientUnits="userSpaceOnUse">
<stop stop-color="#FEBBBA"/>
<stop offset="1" stop-color="#FF928E"/>
</linearGradient>
<linearGradient id="paint19_linear" x1="143.534" y1="203.396" x2="133.555" y2="233.566" gradientUnits="userSpaceOnUse">
<stop stop-color="#4F52FF"/>
<stop offset="1" stop-color="#4042E2"/>
</linearGradient>
<linearGradient id="paint20_linear" x1="295.008" y1="177.01" x2="327.423" y2="177.01" gradientUnits="userSpaceOnUse">
<stop stop-color="#DAE3FE"/>
<stop offset="1" stop-color="#E9EFFD"/>
</linearGradient>
<linearGradient id="paint21_linear" x1="294.938" y1="124.918" x2="327.353" y2="124.918" gradientUnits="userSpaceOnUse">
<stop stop-color="#DAE3FE"/>
<stop offset="1" stop-color="#E9EFFD"/>
</linearGradient>
<linearGradient id="paint22_linear" x1="330.021" y1="211.781" x2="279.859" y2="259.385" gradientUnits="userSpaceOnUse">
<stop stop-color="#FDF53F"/>
<stop offset="1" stop-color="#D93C65"/>
</linearGradient>
<linearGradient id="paint23_linear" x1="295.514" y1="340.768" x2="363.055" y2="414.233" gradientUnits="userSpaceOnUse">
<stop stop-color="#09005D"/>
<stop offset="1" stop-color="#1A0F91"/>
</linearGradient>
<linearGradient id="paint24_linear" x1="317.437" y1="346.224" x2="311.437" y2="346.224" gradientUnits="userSpaceOnUse">
<stop stop-color="#FEBBBA"/>
<stop offset="1" stop-color="#FF928E"/>
</linearGradient>
<linearGradient id="paint25_linear" x1="331.663" y1="300.351" x2="311.826" y2="300.351" gradientUnits="userSpaceOnUse">
<stop stop-color="#4F52FF"/>
<stop offset="1" stop-color="#4042E2"/>
</linearGradient>
<linearGradient id="paint26_linear" x1="310.666" y1="326.838" x2="378.207" y2="400.303" gradientUnits="userSpaceOnUse">
<stop stop-color="#09005D"/>
<stop offset="1" stop-color="#1A0F91"/>
</linearGradient>
<linearGradient id="paint27_linear" x1="339.058" y1="345.916" x2="333.878" y2="345.916" gradientUnits="userSpaceOnUse">
<stop stop-color="#FEBBBA"/>
<stop offset="1" stop-color="#FF928E"/>
</linearGradient>
<linearGradient id="paint28_linear" x1="344.641" y1="299.702" x2="316.48" y2="299.702" gradientUnits="userSpaceOnUse">
<stop stop-color="#4F52FF"/>
<stop offset="1" stop-color="#4042E2"/>
</linearGradient>
<linearGradient id="paint29_linear" x1="-2946.24" y1="-794.574" x2="-2805.73" y2="-750.665" gradientUnits="userSpaceOnUse">
<stop stop-color="#FF928E"/>
<stop offset="1" stop-color="#FE7062"/>
</linearGradient>
<linearGradient id="paint30_linear" x1="292.75" y1="189.709" x2="262.1" y2="189.709" gradientUnits="userSpaceOnUse">
<stop stop-color="#FEBBBA"/>
<stop offset="1" stop-color="#FF928E"/>
</linearGradient>
<linearGradient id="paint31_linear" x1="268.928" y1="184.572" x2="289.494" y2="231.365" gradientUnits="userSpaceOnUse">
<stop stop-color="#FEBBBA"/>
<stop offset="1" stop-color="#FF928E"/>
</linearGradient>
<linearGradient id="paint32_linear" x1="262.247" y1="168.988" x2="253.666" y2="155.794" gradientUnits="userSpaceOnUse">
<stop stop-color="#FEBBBA"/>
<stop offset="1" stop-color="#FF928E"/>
</linearGradient>
<linearGradient id="paint33_linear" x1="-2940.48" y1="-812.991" x2="-2799.97" y2="-769.082" gradientUnits="userSpaceOnUse">
<stop stop-color="#FF928E"/>
<stop offset="1" stop-color="#FE7062"/>
</linearGradient>
<linearGradient id="paint34_linear" x1="359.817" y1="233.123" x2="321.03" y2="233.123" gradientUnits="userSpaceOnUse">
<stop stop-color="#FEBBBA"/>
<stop offset="1" stop-color="#FF928E"/>
</linearGradient>
<linearGradient id="paint35_linear" x1="309.296" y1="205.547" x2="287.968" y2="294.412" gradientUnits="userSpaceOnUse">
<stop stop-color="#09005D"/>
<stop offset="1" stop-color="#1A0F91"/>
</linearGradient>
<linearGradient id="paint36_linear" x1="295.943" y1="191.539" x2="300.485" y2="211.486" gradientUnits="userSpaceOnUse">
<stop stop-color="#4F52FF"/>
<stop offset="1" stop-color="#4042E2"/>
</linearGradient>
<linearGradient id="paint37_linear" x1="298.32" y1="199.906" x2="300.492" y2="212.94" gradientUnits="userSpaceOnUse">
<stop stop-color="#4F52FF"/>
<stop offset="1" stop-color="#4042E2"/>
</linearGradient>
<linearGradient id="paint38_linear" x1="323.91" y1="229.057" x2="311.826" y2="229.057" gradientUnits="userSpaceOnUse">
<stop stop-color="#FEBBBA"/>
<stop offset="1" stop-color="#FF928E"/>
</linearGradient>
<linearGradient id="paint39_linear" x1="330.034" y1="191.658" x2="314.699" y2="191.658" gradientUnits="userSpaceOnUse">
<stop stop-color="#FEBBBA"/>
<stop offset="1" stop-color="#FF928E"/>
</linearGradient>
<linearGradient id="paint40_linear" x1="316.746" y1="170.677" x2="317.507" y2="203.358" gradientUnits="userSpaceOnUse">
<stop stop-color="#FEBBBA"/>
<stop offset="1" stop-color="#FF928E"/>
</linearGradient>
<linearGradient id="paint41_linear" x1="325.305" y1="184.556" x2="306.196" y2="170.798" gradientUnits="userSpaceOnUse">
<stop stop-color="#09005D"/>
<stop offset="1" stop-color="#1A0F91"/>
</linearGradient>
<linearGradient id="paint42_linear" x1="328.111" y1="204.306" x2="324.757" y2="181.903" gradientUnits="userSpaceOnUse">
<stop stop-color="#FEBBBA"/>
<stop offset="1" stop-color="#FF928E"/>
</linearGradient>
</defs>
</svg>
