<svg viewBox="0 0 60 60" xmlns="http://www.w3.org/2000/svg">
<path d="M58.1,48.8V42l-2.6-0.7c0,0,0-0.1-0.1-0.1l1.4-2.3L51.9,34l-2.3,1.4c0,0-0.1,0-0.1-0.1l-0.7-2.6H42l-0.7,2.6
	c0,0-0.1,0-0.1,0.1L38.8,34L34,38.8l1.4,2.3c0,0,0,0.1-0.1,0.1L32.7,42v6.8l2.6,0.7c0,0,0,0.1,0.1,0.1L34,51.9l4.8,4.8l2.3-1.4
	c0,0,0.1,0,0.1,0.1l0.7,2.6h6.8l0.7-2.6c0,0,0.1,0,0.1-0.1l2.3,1.4l4.8-4.8l-1.4-2.3c0,0,0-0.1,0.1-0.1L58.1,48.8z M54.5,51.6
	l-2.8,2.8l-1.9-1.1l-0.4,0.2c-0.3,0.1-0.6,0.3-0.9,0.4L48,54.1l-0.6,2.2h-4l-0.6-2.2l-0.5-0.2c-0.3-0.1-0.6-0.2-0.9-0.4l-0.4-0.2
	l-1.9,1.1l-2.8-2.8l1.1-1.9l-0.2-0.4c-0.1-0.3-0.3-0.6-0.4-0.9L36.7,48l-2.2-0.6v-4l2.2-0.6l0.2-0.5c0.1-0.3,0.2-0.6,0.4-0.9
	l0.2-0.4l-1.1-1.9l2.8-2.8l1.9,1.1l0.4-0.2c0.3-0.1,0.6-0.3,0.9-0.4l0.5-0.2l0.6-2.2h4l0.6,2.2l0.5,0.2c0.3,0.1,0.6,0.2,0.9,0.4
	l0.4,0.2l1.9-1.1l2.8,2.8l-1.1,1.9l0.2,0.4c0.1,0.3,0.3,0.6,0.4,0.9l0.2,0.5l2.2,0.6v4L54.1,48l-0.2,0.5c-0.1,0.3-0.2,0.6-0.4,0.9
	l-0.2,0.4L54.5,51.6z"/>
<path d="M45.4,38.1c-4,0-7.2,3.2-7.2,7.2s3.2,7.2,7.2,7.2s7.2-3.2,7.2-7.2S49.4,38.1,45.4,38.1z M45.4,50.8
	c-3,0-5.4-2.4-5.4-5.4s2.4-5.4,5.4-5.4s5.4,2.4,5.4,5.4S48.4,50.8,45.4,50.8z"/>
<path d="M45.4,41.8c-2,0-3.6,1.6-3.6,3.6c0,2,1.6,3.6,3.6,3.6c2,0,3.6-1.6,3.6-3.6C49,43.4,47.4,41.8,45.4,41.8z
	 M45.4,47.2c-1,0-1.8-0.8-1.8-1.8c0-1,0.8-1.8,1.8-1.8c1,0,1.8,0.8,1.8,1.8C47.2,46.4,46.4,47.2,45.4,47.2z"/>
<path d="M24.9,17.3c0.3,0.9,0.8,1.7,1.5,2.3v0.8l-4.3,1.6c-1.8,0.7-2.9,2.4-2.9,4.2v4.7h21.7v-4.7
	c0-1.9-1.2-3.6-2.9-4.2l-4.3-1.6v-0.8c0.7-0.6,1.2-1.4,1.5-2.3c1.7-0.3,3-1.8,3-3.6v-3.6c0-4.5-3.7-8.1-8.1-8.1s-8.1,3.7-8.1,8.1
	v3.6C21.9,15.5,23.2,17,24.9,17.3z M31.8,20.7l-1.8,3l-1.8-3v-0.1c0.6,0.2,1.2,0.3,1.8,0.3S31.2,20.8,31.8,20.7L31.8,20.7z
	 M26.9,22.1l1.8,3L26.9,26l-1.2-3.5L26.9,22.1z M39.1,26.2v2.9H20.9v-2.9c0-1.1,0.7-2.1,1.8-2.5l1.3-0.5l1.8,5.4l4.1-2.1l4.1,2.1
	l1.8-5.4l1.3,0.5C38.3,24,39.1,25,39.1,26.2z M34.3,22.5L33.1,26l-1.8-0.9l1.8-3L34.3,22.5z M30,19.1c-2,0-3.6-1.6-3.6-3.6v-3.7
	c1.3-0.1,2.6-0.6,3.6-1.4c1,0.8,2.3,1.3,3.6,1.4v3.7C33.6,17.5,32,19.1,30,19.1z M35.4,15.3v-3.1c0.5,0.3,0.9,0.9,0.9,1.6
	C36.3,14.4,36,14.9,35.4,15.3z M30,3.7c3.5,0,6.3,2.8,6.3,6.3v0.5c-0.5-0.3-1.1-0.5-1.8-0.5h-0.2c-1.4,0-2.7-0.5-3.7-1.5L30,7.9
	l-0.6,0.6c-1,1-2.3,1.5-3.7,1.5h-0.2c-0.7,0-1.3,0.2-1.8,0.5v-0.5C23.7,6.6,26.5,3.7,30,3.7z M24.6,12.1v3.1
	c-0.5-0.3-0.9-0.9-0.9-1.6S24,12.5,24.6,12.1z"/>
<path d="M1.9,58.1H20V34.5H1.9V58.1z M3.7,36.3h14.5v19.9H3.7V36.3z"/>
<path d="M5.6,38.1h10.9V40H5.6V38.1z"/>
<path d="M5.6,41.8h1.8v1.8H5.6V41.8z"/>
<path d="M9.2,41.8h7.2v1.8H9.2V41.8z"/>
<path d="M5.6,45.4h10.9v1.8H5.6V45.4z"/>
<path d="M5.6,49h10.9v1.8H5.6V49z"/>
<path d="M14.6,52.6h1.8v1.8h-1.8V52.6z"/>
<path d="M5.6,52.6h7.2v1.8H5.6V52.6z"/>
<path d="M26.1,42.4l-1.3-1.3l-4.3,4.3l4.3,4.3l1.3-1.3L24,46.3h6.9v-1.8H24L26.1,42.4z"/>
<path class="st0" d="M11.9,16.4c0-0.5,0.4-0.9,0.9-0.9H17l-2.1,2.1l1.3,1.3l4.3-4.3l-4.3-4.3l-1.3,1.3l2.1,2.1h-4.2
	c-1.5,0-2.7,1.2-2.7,2.7v16.3h1.8V16.4z"/>
<path d="M45.4,16.4v11.4l-2.1-2.1L42,27l4.3,4.3l4.3-4.3l-1.3-1.3l-2.1,2.1V16.4c0-1.5-1.2-2.7-2.7-2.7H40v1.8h4.5
	C45,15.5,45.4,15.9,45.4,16.4z"/>
</svg>
