<?xml version="1.0" encoding="utf-8"?>
<!-- Generator: Adobe Illustrator 23.0.1, SVG Export Plug-In . SVG Version: 6.00 Build 0)  -->
<svg version="1.1" id="Layer_1" xmlns="http://www.w3.org/2000/svg" xmlns:xlink="http://www.w3.org/1999/xlink" x="0px" y="0px"
	 viewBox="0 0 60 60" style="enable-background:new 0 0 60 60;" xml:space="preserve">
<style type="text/css">
	.st0{fill:#010101;}
</style>
<g>
	<path class="st0" d="M54.1,22.8c0.4,0,0.8-0.4,0.8-0.8V9.1c0-0.4-0.4-0.8-0.8-0.8h-0.8V5.9c0-0.4-0.4-0.8-0.8-0.8H7.5
		c-0.4,0-0.8,0.4-0.8,0.8v2.4H5.9c-0.4,0-0.8,0.4-0.8,0.8V22c0,0.4,0.4,0.8,0.8,0.8h0.8v27.3H5.9c-0.4,0-0.8,0.4-0.8,0.8v3.2
		c0,0.4,0.4,0.8,0.8,0.8h48.1c0.4,0,0.8-0.4,0.8-0.8v-3.2c0-0.4-0.4-0.8-0.8-0.8h-0.8V22.8H54.1z M8.3,6.7h43.3v1.6H8.3V6.7z
		 M6.7,9.9h46.5v11.2H6.7V9.9z M51.7,30.8H42V26h9.6V30.8z M40.4,30.8h-9.6V26h9.6V30.8z M29.2,30.8h-9.6V26h9.6V30.8z M18,30.8H8.3
		V26H18V30.8z M53.3,53.3H6.7v-1.6h46.5V53.3z M32.4,50.1h-1.6V38c0-0.4-0.4-0.8-0.8-0.8H14c-0.4,0-0.8,0.4-0.8,0.8v12h-1.6V35.6
		h20.9V50.1z M14.8,50.1V38.8h6.4v11.2H14.8z M22.8,38.8h6.4v11.2h-6.4V38.8z M48.5,50.1h-9.6V35.6h9.6V50.1z M50.1,50.1V34.8
		c0-0.4-0.4-0.8-0.8-0.8H38c-0.4,0-0.8,0.4-0.8,0.8v15.2H34V34.8c0-0.4-0.4-0.8-0.8-0.8H10.7c-0.4,0-0.8,0.4-0.8,0.8v15.2H8.3V32.4
		h43.3v17.7H50.1z M51.7,24.4H8.3v-1.6h43.3V24.4z"/>
	<path class="st0" d="M41.2,43.6H46c0.4,0,0.8-0.4,0.8-0.8V38c0-0.4-0.4-0.8-0.8-0.8h-4.8c-0.4,0-0.8,0.4-0.8,0.8v4.8
		C40.4,43.3,40.8,43.6,41.2,43.6z M42,38.8h3.2V42H42V38.8z"/>
</g>
</svg>
