<svg width="101" height="77" viewBox="0 0 101 77" fill="none" xmlns="http://www.w3.org/2000/svg">
<path d="M96.8984 76.2734H4.71094V33.6953H96.8984V76.2734Z" fill="#FEDBAB"/>
<path d="M96.8984 76.2734H50.8047V33.6953H96.8984V76.2734Z" fill="#FEC478"/>
<path d="M100.805 45.4141H0.804688V51.2734H100.805V45.4141Z" fill="#E08344"/>
<path d="M100.805 45.4141H50.8047V51.2734H100.805V45.4141Z" fill="#D6702B"/>
<path d="M30.2969 0.492188H24.4375V9.28125H30.2969V0.492188Z" fill="#E08344"/>
<path d="M77.1719 0.492188H71.3125V9.28125H77.1719V0.492188Z" fill="#D6702B"/>
<path d="M56.6641 62.9434C56.6641 59.7125 54.0355 57.084 50.8047 57.084C47.5738 57.084 44.9453 59.7125 44.9453 62.9434C44.9453 64.1381 45.3055 65.2498 45.9219 66.1773V76.1758H55.6875V66.1773C56.3039 65.2498 56.6641 64.1381 56.6641 62.9434Z" fill="#E08344"/>
<path d="M36.1562 76.2733H18.5781V15.1405C18.5781 10.2942 22.5209 6.35144 27.3672 6.35144C32.2135 6.35144 36.1562 10.2942 36.1562 15.1405V76.2733Z" fill="#FFE8CC"/>
<path d="M83.0312 76.2733H65.4531V15.1405C65.4531 10.2942 69.3959 6.35144 74.2422 6.35144C79.0885 6.35144 83.0312 10.2942 83.0312 15.1405V76.2733Z" fill="#FEDBAB"/>
<path d="M100.805 33.6953H0.804688V39.5547H100.805V33.6953Z" fill="#E08344"/>
<path d="M86.9375 21.9766H14.6719V27.8359H86.9375V21.9766Z" fill="#E08344"/>
<path d="M100.805 33.6954H50.8047V39.5548H100.805V33.6954Z" fill="#D6702B"/>
<path d="M86.9375 21.9766H50.8047V27.8359H86.9375V21.9766Z" fill="#D6702B"/>
<path d="M50.8047 57.084V76.1758H55.6875V66.1773C56.3039 65.2498 56.6641 64.1381 56.6641 62.9434C56.6641 59.7125 54.0355 57.084 50.8047 57.084Z" fill="#D6702B"/>
</svg>
