<svg width="100" height="64" viewBox="0 0 100 64" fill="none" xmlns="http://www.w3.org/2000/svg">
<path d="M100 56.875H0V30.3125C0 25.1348 4.19727 20.9375 9.375 20.9375H90.625C95.8027 20.9375 100 25.1348 100 30.3125V56.875Z" fill="#C8F5F0"/>
<path d="M42.1875 2.1875H50V8.4375H42.1875V2.1875Z" fill="#FF6E64"/>
<path d="M50 14.6875L26.5625 25.625H73.4375L50 14.6875Z" fill="#FFEACD"/>
<path d="M6.25 25.625H93.75V55.3125H6.25V25.625Z" fill="#FFEACD"/>
<path d="M31.25 31.875H68.75V36.5625H31.25V31.875Z" fill="#FFD3AE"/>
<path d="M6.25 50.625H93.75V55.3125H6.25V50.625Z" fill="#FFD3AE"/>
<path d="M50 0.625H42.1875C41.3246 0.625 40.625 1.32461 40.625 2.1875V8.4375C40.625 9.30039 41.3246 10 42.1875 10H48.4375V14.6875C48.4375 15.5504 49.1371 16.25 50 16.25C50.8629 16.25 51.5625 15.5504 51.5625 14.6875V2.1875C51.5625 1.32461 50.8629 0.625 50 0.625ZM43.75 6.875V3.75H48.4375V6.875H43.75Z" fill="#7C657C"/>
<path d="M6.25 58.4375C6.25 61.0264 8.34863 63.125 10.9375 63.125H89.0625C91.6514 63.125 93.75 61.0264 93.75 58.4375H6.25Z" fill="#AAD264"/>
<path d="M96.875 60H3.125C1.39902 60 0 58.601 0 56.875L1.56309 55.3125H98.4379L100 56.875C100 58.601 98.601 60 96.875 60Z" fill="#6EA573"/>
<path d="M96.875 53.75H95.3125V25.625C95.3125 24.7621 94.6129 24.0625 93.75 24.0625H73.7842L50.6607 13.2715C50.2418 13.076 49.758 13.076 49.3391 13.2715L26.2158 24.0625H6.25C5.38711 24.0625 4.6875 24.7621 4.6875 25.625V53.75H3.125C1.39922 53.75 0 55.1492 0 56.875H100C100 55.1492 98.601 53.75 96.875 53.75ZM92.1875 53.75H89.0625V47.5C89.0625 46.6371 88.3629 45.9375 87.5 45.9375C86.6371 45.9375 85.9375 46.6371 85.9375 47.5V53.75H82.8125V47.5C82.8125 46.6371 82.1129 45.9375 81.25 45.9375C80.3871 45.9375 79.6875 46.6371 79.6875 47.5V53.75H76.5625V47.5C76.5625 46.6371 75.8629 45.9375 75 45.9375C74.1371 45.9375 73.4375 46.6371 73.4375 47.5V53.75H70.3125V27.1875C70.3125 27.1875 73.434 27.1879 73.4365 27.1879C73.4383 27.1879 73.44 27.1875 73.442 27.1875H92.1875V53.75ZM62.5 45.9375C61.6371 45.9375 60.9375 46.6371 60.9375 47.5V53.75H57.8125V33.4375H67.1875V53.75H64.0625V47.5C64.0625 46.6371 63.3629 45.9375 62.5 45.9375ZM50 45.9375C49.1371 45.9375 48.4375 46.6371 48.4375 47.5V53.75H45.3125V33.4375H54.6875V53.75H51.5625V47.5C51.5625 46.6371 50.8629 45.9375 50 45.9375ZM37.5 45.9375C36.6371 45.9375 35.9375 46.6371 35.9375 47.5V53.75H32.8125V33.4375H42.1875V53.75H39.0625V47.5C39.0625 46.6371 38.3629 45.9375 37.5 45.9375ZM67.1875 27.1875V30.3125H32.8125V27.1875H67.1875ZM50 16.4117L66.3943 24.0625H33.6057L50 16.4117ZM7.8125 27.1875H29.6875V53.75H26.5625V47.5C26.5625 46.6371 25.8629 45.9375 25 45.9375C24.1371 45.9375 23.4375 46.6371 23.4375 47.5V53.75H20.3125V47.5C20.3125 46.6371 19.6129 45.9375 18.75 45.9375C17.8871 45.9375 17.1875 46.6371 17.1875 47.5V53.75H14.0625V47.5C14.0625 46.6371 13.3629 45.9375 12.5 45.9375C11.6371 45.9375 10.9375 46.6371 10.9375 47.5V53.75H7.8125V27.1875Z" fill="#503250"/>
<path d="M64.0625 38.125C64.0625 37.2621 63.3629 36.5625 62.5 36.5625C61.6371 36.5625 60.9375 37.2621 60.9375 38.125V41.25C60.9375 42.1129 61.6371 42.8125 62.5 42.8125C63.3629 42.8125 64.0625 42.1129 64.0625 41.25V38.125Z" fill="#503250"/>
<path d="M51.5625 38.125C51.5625 37.2621 50.8629 36.5625 50 36.5625C49.1371 36.5625 48.4375 37.2621 48.4375 38.125V41.25C48.4375 42.1129 49.1371 42.8125 50 42.8125C50.8629 42.8125 51.5625 42.1129 51.5625 41.25V38.125Z" fill="#503250"/>
<path d="M39.0625 38.125C39.0625 37.2621 38.3629 36.5625 37.5 36.5625C36.6371 36.5625 35.9375 37.2621 35.9375 38.125V41.25C35.9375 42.1129 36.6371 42.8125 37.5 42.8125C38.3629 42.8125 39.0625 42.1129 39.0625 41.25V38.125Z" fill="#503250"/>
<path d="M25 42.8125C25.8629 42.8125 26.5625 42.1129 26.5625 41.25V38.125C26.5625 37.2621 25.8629 36.5625 25 36.5625C24.1371 36.5625 23.4375 37.2621 23.4375 38.125V41.25C23.4375 42.1129 24.1371 42.8125 25 42.8125Z" fill="#503250"/>
<path d="M18.75 42.8125C19.6129 42.8125 20.3125 42.1129 20.3125 41.25V38.125C20.3125 37.2621 19.6129 36.5625 18.75 36.5625C17.8871 36.5625 17.1875 37.2621 17.1875 38.125V41.25C17.1875 42.1129 17.8871 42.8125 18.75 42.8125Z" fill="#503250"/>
<path d="M12.5 42.8125C13.3629 42.8125 14.0625 42.1129 14.0625 41.25V38.125C14.0625 37.2621 13.3629 36.5625 12.5 36.5625C11.6371 36.5625 10.9375 37.2621 10.9375 38.125V41.25C10.9375 42.1129 11.6371 42.8125 12.5 42.8125Z" fill="#503250"/>
<path d="M87.5 42.8125C88.3629 42.8125 89.0625 42.1129 89.0625 41.25V38.125C89.0625 37.2621 88.3629 36.5625 87.5 36.5625C86.6371 36.5625 85.9375 37.2621 85.9375 38.125V41.25C85.9375 42.1129 86.6371 42.8125 87.5 42.8125Z" fill="#503250"/>
<path d="M81.25 42.8125C82.1129 42.8125 82.8125 42.1129 82.8125 41.25V38.125C82.8125 37.2621 82.1129 36.5625 81.25 36.5625C80.3871 36.5625 79.6875 37.2621 79.6875 38.125V41.25C79.6875 42.1129 80.3871 42.8125 81.25 42.8125Z" fill="#503250"/>
<path d="M73.4375 38.125V41.25C73.4375 42.1129 74.1371 42.8125 75 42.8125C75.8629 42.8125 76.5625 42.1129 76.5625 41.25V38.125C76.5625 37.2621 75.8629 36.5625 75 36.5625C74.1371 36.5625 73.4375 37.2621 73.4375 38.125Z" fill="#503250"/>
<path d="M29.6875 30.3125H4.6875C3.82461 30.3125 3.125 31.0121 3.125 31.875C3.125 32.7379 3.82461 33.4375 4.6875 33.4375H29.6875V30.3125Z" fill="#7C657C"/>
<path d="M70.3125 33.4375H95.3125C96.1754 33.4375 96.875 32.7379 96.875 31.875C96.875 31.0121 96.1754 30.3125 95.3125 30.3125H70.3125V33.4375Z" fill="#7C657C"/>
</svg>
