<svg width="100" height="99" viewBox="0 0 100 99" fill="none" xmlns="http://www.w3.org/2000/svg">
<path d="M36.666 25H63.3332V51.6665H36.666V25Z" fill="#F5AE45"/>
<path d="M36.666 25L43.3328 18.3333H56.6664L63.3332 25H36.666Z" fill="#4394CC"/>
<path d="M43.333 11.6664H56.6666V18.3332H43.333V11.6664Z" fill="#F5AE45"/>
<path d="M43.333 11.6664L49.9998 0L56.6666 11.6664H43.333Z" fill="#4394CC"/>
<path d="M41.666 30.0002H58.3327V46.6669H41.666V30.0002Z" fill="#E68A00"/>
<path d="M56.6666 38.3335C56.6666 42.0151 53.682 44.9997 49.9998 44.9997C46.3176 44.9997 43.333 42.0151 43.333 38.3335C43.333 34.6513 46.3176 31.6667 49.9998 31.6667C53.682 31.6667 56.6666 34.6513 56.6666 38.3335Z" fill="#D0D7DF"/>
<path d="M40 50H59.9997V98.3335H40V50Z" fill="#F5AE45"/>
<path d="M45 56.6667H48.3337V65.0001H45V56.6667Z" fill="#E68A00"/>
<path d="M51.666 56.6667H54.9997V65.0001H51.666V56.6667Z" fill="#E68A00"/>
<path d="M45 68.3333H48.3337V78.3331H45V68.3333Z" fill="#E68A00"/>
<path d="M51.666 68.3333H54.9997V78.3331H51.666V68.3333Z" fill="#E68A00"/>
<path d="M45 81.6667H48.3337V91.6666H45V81.6667Z" fill="#E68A00"/>
<path d="M51.666 81.6667H54.9997V91.6666H51.666V81.6667Z" fill="#E68A00"/>
<path d="M5 73.3335H39.9999V98.3335H5V73.3335Z" fill="#F5AE45"/>
<path d="M31.667 78.333H35.0001V83.3333H31.667V78.333Z" fill="#E68A00"/>
<path d="M31.667 86.6664H35.0001V91.6666H31.667V86.6664Z" fill="#E68A00"/>
<path d="M25 78.333H28.3331V83.3333H25V78.333Z" fill="#E68A00"/>
<path d="M25 86.6664H28.3331V91.6666H25V86.6664Z" fill="#E68A00"/>
<path d="M18.333 78.333H21.6667V83.3333H18.333V78.333Z" fill="#E68A00"/>
<path d="M18.333 86.6664H21.6667V91.6666H18.333V86.6664Z" fill="#E68A00"/>
<path d="M11.666 78.333H14.9997V83.3333H11.666V78.333Z" fill="#E68A00"/>
<path d="M11.666 86.6664H14.9997V91.6666H11.666V86.6664Z" fill="#E68A00"/>
<path d="M66.666 73.3335H93.3326V98.3335H66.666V73.3335Z" fill="#F5AE45"/>
<path d="M85 78.333H88.3337V83.3333H85V78.333Z" fill="#E68A00"/>
<path d="M85 86.6664H88.3337V91.6666H85V86.6664Z" fill="#E68A00"/>
<path d="M78.333 78.333H81.6667V83.3333H78.333V78.333Z" fill="#E68A00"/>
<path d="M78.333 86.6664H81.6667V91.6666H78.333V86.6664Z" fill="#E68A00"/>
<path d="M71.667 78.333H75.0001V83.3333H71.667V78.333Z" fill="#E68A00"/>
<path d="M71.667 86.6664H75.0001V91.6666H71.667V86.6664Z" fill="#E68A00"/>
<path d="M0 94.9998H6.66679V98.3335H0V94.9998Z" fill="#F5AE45"/>
<path d="M5 61.6664H8.33308V73.3334H5V61.6664Z" fill="#F5AE45"/>
<path d="M15 61.6664H18.3331V73.3334H15V61.6664Z" fill="#F5AE45"/>
<path d="M21.667 61.6664H25.0001V73.3334H21.667V61.6664Z" fill="#F5AE45"/>
<path d="M31.667 61.6664H35.0001V73.3334H31.667V61.6664Z" fill="#F5AE45"/>
<path d="M93.3326 73.3335H66.666L68.3326 66.6667H91.666L93.3326 73.3335Z" fill="#4394CC"/>
<path d="M78.333 61.6664H81.6667V66.6666H78.333V61.6664Z" fill="#4394CC"/>
<path d="M71.667 61.6664H75.0001V66.6666H71.667V61.6664Z" fill="#4394CC"/>
<path d="M85 61.6664H88.3337V66.6666H85V61.6664Z" fill="#4394CC"/>
<path d="M93.333 94.9998H99.9998V98.3335H93.333V94.9998Z" fill="#F5AE45"/>
<path d="M40 51.6665H59.9997V55.0002H40V51.6665Z" fill="#F09E26"/>
<path d="M46.1982 43.8017C49.2147 45.9048 53.3648 45.1644 55.4679 42.1479C57.0636 39.8597 57.0636 36.8196 55.4679 34.532L46.1982 43.8017Z" fill="#C3C9D1"/>
<path d="M53.3331 38.3336C53.3331 40.1744 51.8409 41.6667 50.0001 41.6667C48.1593 41.6667 46.667 40.1744 46.667 38.3336C46.667 36.4922 48.1593 34.9999 50.0001 34.9999C51.8409 34.9999 53.3331 36.4922 53.3331 38.3336Z" fill="#C3C9D1"/>
<path d="M16.6669 73.3335H6.66699L8.33353 66.6667H15.0003L16.6669 73.3335Z" fill="#4394CC"/>
<path d="M33.3339 73.3335H23.334L25.0005 66.6667H31.6673L33.3339 73.3335Z" fill="#4394CC"/>
<path d="M38.334 73.3335H41.6671V98.3335H38.334V73.3335Z" fill="#F09E26"/>
</svg>
