<svg width="100" height="100" viewBox="0 0 100 100" fill="none" xmlns="http://www.w3.org/2000/svg">
<path d="M29.0324 8.06452H25.8066V2.44798C25.8066 1.91331 26.0191 1.4004 26.3972 1.02238L27.4195 0L28.4419 1.02238C28.8199 1.4004 29.0324 1.91331 29.0324 2.44798V8.06452Z" fill="#FCB641"/>
<path d="M100 43.5485H77.4194V37.0969H100V43.5485Z" fill="#E68A34"/>
<path d="M96.7742 24.1936V20.9678H3.22581V24.1936H0V100H100V24.1936H96.7742Z" fill="#FCB641"/>
<path d="M74.1946 8.06452H70.9688V2.44798C70.9688 1.91331 71.1812 1.4004 71.5593 1.02238L72.5817 0L73.604 1.02238C73.9821 1.4004 74.1946 1.91331 74.1946 2.44798V8.06452Z" fill="#FCB641"/>
<path d="M75.648 7.90588L72.5809 4.83875L69.5138 7.90588C68.3795 9.04016 67.7422 10.5787 67.7422 12.1827V100H77.4196V12.1827C77.4196 10.5787 76.7823 9.04016 75.648 7.90588Z" fill="#FFD642"/>
<path d="M67.7422 24.1937H77.4196V33.8711H67.7422V24.1937Z" fill="#FFFEFA"/>
<path d="M67.7422 82.2582H77.4196V85.484H67.7422V82.2582Z" fill="#FFFEFA"/>
<path d="M67.7422 88.7096H77.4196V91.9354H67.7422V88.7096Z" fill="#FFFEFA"/>
<path d="M30.4859 7.90588L27.4188 4.83875L24.3517 7.90588C23.2174 9.04016 22.5801 10.5787 22.5801 12.1827V100H32.2575V12.1827C32.2575 10.5787 31.6202 9.04016 30.4859 7.90588Z" fill="#FFD642"/>
<path d="M32.2578 33.8711H67.7417V43.5485H32.2578V33.8711Z" fill="#E68A34"/>
<path d="M40.3223 33.8711H59.6771V43.5485H40.3223V33.8711Z" fill="#FFFBF8"/>
<path d="M14.5156 48.3872H17.7414V51.613H14.5156V48.3872Z" fill="#FFFEFA"/>
<path d="M4.83984 48.3872H8.06565V51.613H4.83984V48.3872Z" fill="#FFFEFA"/>
<path d="M22.5801 24.1937H32.2575V33.8711H22.5801V24.1937Z" fill="#FFFEFA"/>
<path d="M0 37.0967H22.5806V43.5483H0V37.0967Z" fill="#E68A34"/>
<path d="M4.83984 29.0322H17.7431V32.258H4.83984V29.0322Z" fill="#FFFEFA"/>
<path d="M22.5801 82.2582H32.2575V85.484H22.5801V82.2582Z" fill="#FFFEFA"/>
<path d="M22.5801 88.7096H32.2575V91.9354H22.5801V88.7096Z" fill="#FFFEFA"/>
<path d="M38.709 100V67.5155C38.709 63.6089 40.5957 59.9428 43.7747 57.672L49.9993 53.2258L56.2239 57.672C59.4029 59.9428 61.2896 63.6089 61.2896 67.5155V100H38.709Z" fill="#FFFDFA"/>
<path d="M37.0957 48.3872H41.9344V51.613H37.0957V48.3872Z" fill="#FFFEFA"/>
<path d="M58.0645 48.3872H62.9032V51.613H58.0645V48.3872Z" fill="#FFFEFA"/>
<path d="M32.2578 14.5162H67.7417V20.9678H32.2578V14.5162Z" fill="#E68A34"/>
<path d="M37.0957 25.8065H48.386V29.0323H37.0957V25.8065Z" fill="#FFFEFA"/>
<path d="M51.6133 25.8065H62.9036V29.0323H51.6133V25.8065Z" fill="#FFFEFA"/>
<path d="M12.904 17.7417H22.5814V24.1933H3.22656V19.3546L4.83947 17.7417H9.67817H12.904Z" fill="#E68A34"/>
<path d="M6.45117 95.1614V77.5342C6.45117 75.3953 7.30077 73.3441 8.81327 71.8318L11.2899 69.355L13.7665 71.8316C15.279 73.3441 16.1286 75.3953 16.1286 77.5342V95.1614H6.45117Z" fill="#FFFDFA"/>
<path d="M0 56.4517H22.5806V62.9033H0V56.4517Z" fill="#E68A34"/>
<path d="M91.9355 48.3872H95.1614V51.613H91.9355V48.3872Z" fill="#FFFEFA"/>
<path d="M82.2578 48.3872H85.4836V51.613H82.2578V48.3872Z" fill="#FFFEFA"/>
<path d="M82.2578 29.0322H95.161V32.258H82.2578V29.0322Z" fill="#FFFEFA"/>
<path d="M0 95.1611H22.5806V99.9998H0V95.1611Z" fill="#E68A34"/>
<path d="M77.4199 17.7418V24.1934H96.7748V19.3547L95.1619 17.7418H77.4199Z" fill="#E68A34"/>
<path d="M100 62.9032H77.4194V56.4516H100V62.9032Z" fill="#E68A34"/>
<path d="M93.5485 95.1614V77.5342C93.5485 75.3953 92.6989 73.3441 91.1864 71.8318L88.7098 69.355L86.2332 71.8316C84.7207 73.3441 83.8711 75.3953 83.8711 77.5342V95.1614H93.5485Z" fill="#FFFDFA"/>
<path d="M77.4199 95.1613H100.001V100H77.4199V95.1613Z" fill="#E68A34"/>
</svg>
