<?xml version="1.0" encoding="utf-8"?>
<!-- Generator: Adobe Illustrator 23.0.1, SVG Export Plug-In . SVG Version: 6.00 Build 0)  -->
<svg version="1.1" id="Layer_1" xmlns="http://www.w3.org/2000/svg" xmlns:xlink="http://www.w3.org/1999/xlink" x="0px" y="0px"
	 viewBox="0 0 60 60" style="enable-background:new 0 0 60 60;" xml:space="preserve">
<style type="text/css">
	.st0{fill:#010101;}
</style>
<g>
	<path class="st0" d="M12.2,43.3V33.1h-1.5v10.2c-0.9,0.3-1.5,1.2-1.5,2.2c0,1.3,1,2.3,2.3,2.3s2.3-1,2.3-2.3
		C13.8,44.5,13.1,43.6,12.2,43.3z M11.4,46.2c-0.4,0-0.8-0.3-0.8-0.8s0.3-0.8,0.8-0.8s0.8,0.3,0.8,0.8S11.9,46.2,11.4,46.2z"/>
	<path class="st0" d="M16.1,33.1c-1.3,0-2.3,1-2.3,2.3c0,1,0.6,1.9,1.5,2.2v10.2h1.5V37.6c0.9-0.3,1.5-1.2,1.5-2.2
		C18.4,34.1,17.4,33.1,16.1,33.1z M16.1,36.2c-0.4,0-0.8-0.3-0.8-0.8s0.3-0.8,0.8-0.8c0.4,0,0.8,0.3,0.8,0.8S16.5,36.2,16.1,36.2z"
		/>
	<path class="st0" d="M46.2,43.3V33.1h-1.5v10.2c-0.9,0.3-1.5,1.2-1.5,2.2c0,1.3,1,2.3,2.3,2.3c1.3,0,2.3-1,2.3-2.3
		C47.8,44.5,47.1,43.6,46.2,43.3z M45.5,46.2c-0.4,0-0.8-0.3-0.8-0.8s0.3-0.8,0.8-0.8s0.8,0.3,0.8,0.8S45.9,46.2,45.5,46.2z"/>
	<path class="st0" d="M50.1,33.1c-1.3,0-2.3,1-2.3,2.3c0,1,0.6,1.9,1.5,2.2v10.2h1.5V37.6c0.9-0.3,1.5-1.2,1.5-2.2
		C52.4,34.1,51.4,33.1,50.1,33.1z M50.1,36.2c-0.4,0-0.8-0.3-0.8-0.8s0.3-0.8,0.8-0.8c0.4,0,0.8,0.3,0.8,0.8S50.5,36.2,50.1,36.2z"
		/>
	<path class="st0" d="M39.3,30.8c-0.3,0-0.6,0.1-0.9,0.2c-0.3-1-1.2-1.7-2.2-1.7c-0.6,0-1.1,0.2-1.5,0.6c-0.4-0.4-1-0.6-1.5-0.6
		c-0.3,0-0.5,0.1-0.8,0.1v-6.7c3.2-0.9,5.6-3.7,6.1-6.9l3.3,1.8c-1.9,1.4-3.2,3.7-3.2,6.2c0,4.3,3.5,7.7,7.7,7.7s7.7-3.5,7.7-7.7
		s-3.5-7.7-7.7-7.7c-1.1,0-2.1,0.2-3,0.6l-4.8-2.6c-0.2-4.5-4-8-8.5-8s-8.2,3.6-8.5,8l-4.8,2.6c-0.9-0.4-1.9-0.6-3-0.6
		c-4.3,0-7.7,3.5-7.7,7.7s3.5,7.7,7.7,7.7s7.7-3.5,7.7-7.7c0-2.6-1.3-4.8-3.2-6.2l3.3-1.8c0.5,3.3,2.9,6,6.1,6.9V37
		c0,0.4-0.1,0.7-0.2,1l-0.6-3.2c-0.5-2.3-2.5-4-4.9-4c-1.1,0-2,0.9-2,2c0,0.4,0.1,0.8,0.3,1.1l0.8,1.2c0.3,0.4,0.5,1,0.6,1.5
		l0.5,4.3c0.1,0.7,0.3,1.4,0.6,2l2.6,5.3v1.4h-1.5V54h17v-4.6h-1.5V48l1.2-1.6c0.7-0.9,1.1-2.1,1.1-3.2V33.1
		C41.6,31.8,40.6,30.8,39.3,30.8L39.3,30.8z M46.2,30c-1.4,0-2.7-0.5-3.7-1.2c0.9-1.2,2.2-1.8,3.7-1.8c1.5,0,2.8,0.7,3.7,1.8
		C48.9,29.5,47.6,30,46.2,30z M43.9,23c0-1.3,1-2.3,2.3-2.3c1.3,0,2.3,1,2.3,2.3s-1,2.3-2.3,2.3C45,25.4,43.9,24.3,43.9,23z
		 M46.2,17.6c3.4,0,6.2,2.8,6.2,6.2c0,1.5-0.5,2.8-1.4,3.9c-0.6-0.8-1.4-1.4-2.3-1.8c0.8-0.7,1.3-1.7,1.3-2.9c0-2.1-1.7-3.9-3.9-3.9
		c-2.1,0-3.9,1.7-3.9,3.9c0,1.1,0.5,2.2,1.3,2.9c-0.9,0.4-1.7,1-2.3,1.8c-0.9-1.1-1.4-2.4-1.4-3.9C40.1,20.4,42.8,17.6,46.2,17.6z
		 M13.8,30c-1.4,0-2.7-0.5-3.7-1.2c0.9-1.2,2.2-1.8,3.7-1.8s2.8,0.7,3.7,1.8C16.4,29.5,15.2,30,13.8,30z M11.4,23
		c0-1.3,1-2.3,2.3-2.3s2.3,1,2.3,2.3s-1,2.3-2.3,2.3S11.4,24.3,11.4,23z M19.9,23.8c0,1.5-0.5,2.8-1.4,3.9c-0.6-0.8-1.4-1.4-2.3-1.8
		c0.8-0.7,1.3-1.7,1.3-2.9c0-2.1-1.7-3.9-3.9-3.9S9.9,20.9,9.9,23c0,1.1,0.5,2.2,1.3,2.9c-0.9,0.4-1.7,1-2.3,1.8
		c-0.9-1.1-1.4-2.4-1.4-3.9c0-3.4,2.8-6.2,6.2-6.2S19.9,20.4,19.9,23.8z M23,14.5c0-3.8,3.1-7,7-7s7,3.1,7,7c0,1.6-0.5,3-1.4,4.2
		c-0.6-1.3-1.7-2.3-3-2.9c0.8-0.7,1.3-1.7,1.3-2.9c0-2.1-1.7-3.9-3.9-3.9s-3.9,1.7-3.9,3.9c0,1.1,0.5,2.2,1.3,2.9
		c-1.3,0.6-2.3,1.6-3,2.9C23.6,17.6,23,16.1,23,14.5L23,14.5z M32.3,13c0,1.3-1,2.3-2.3,2.3s-2.3-1-2.3-2.3s1-2.3,2.3-2.3
		S32.3,11.7,32.3,13z M25.6,20c0.6-1.8,2.4-3.1,4.4-3.1c2,0,3.7,1.3,4.4,3.1c-0.7,0.5-1.5,1-2.3,1.2c-0.4-0.7-1.2-1.2-2-1.2
		c-0.9,0-1.7,0.5-2,1.2C27.1,20.9,26.3,20.5,25.6,20z M39.3,52.4H25.4v-1.5h13.9V52.4z M40.1,43.1c0,0.8-0.3,1.7-0.8,2.3l-1.5,2.1
		v1.8H26.9v-1.7L24.2,42c-0.3-0.4-0.4-0.9-0.5-1.4l-0.5-4.3c-0.1-0.8-0.4-1.5-0.8-2.1l-0.8-1.2c0-0.1-0.1-0.1-0.1-0.2
		c0-0.2,0.2-0.4,0.4-0.4c1.6,0,3,1.2,3.4,2.8l1,5h1.9l0.7-1.3c0.3-0.5,0.4-1.1,0.4-1.7V22.3c0-0.4,0.3-0.8,0.8-0.8s0.8,0.3,0.8,0.8
		v9.3v3.1h1.5v-3.1c0-0.4,0.3-0.8,0.8-0.8s0.8,0.3,0.8,0.8v3.1h1.5v-3.1c0-0.4,0.3-0.8,0.8-0.8s0.8,0.3,0.8,0.8v1.5v1.5h1.5v-1.5
		c0-0.4,0.3-0.8,0.8-0.8s0.8,0.3,0.8,0.8V43.1z"/>
</g>
</svg>
