<?xml version="1.0" encoding="utf-8"?>
<!-- Generator: Adobe Illustrator 23.0.1, SVG Export Plug-In . SVG Version: 6.00 Build 0)  -->
<svg version="1.1" id="Layer_1" xmlns="http://www.w3.org/2000/svg" xmlns:xlink="http://www.w3.org/1999/xlink" x="0px" y="0px"
	 viewBox="0 0 60 60" style="enable-background:new 0 0 60 60;" xml:space="preserve">
<style type="text/css">
	.st0{fill:#010101;}
</style>
<g>
	<g>
		<path class="st0" d="M33.7,25.3h-7.3c-0.6,0-1,0.5-1,1v7.3c0,0.6,0.5,1,1,1h7.3c0.6,0,1-0.5,1-1v-7.3
			C34.7,25.8,34.2,25.3,33.7,25.3z M32.6,32.6h-5.3v-5.3h5.3V32.6z"/>
	</g>
</g>
<g>
	<g>
		<path class="st0" d="M52.5,9.5c-1.9,0-3.5,1.5-3.5,3.5s1.5,3.5,3.5,3.5s3.5-1.5,3.5-3.5S54.5,9.5,52.5,9.5z M52.5,14.4
			c-0.8,0-1.4-0.6-1.4-1.4s0.6-1.4,1.4-1.4s1.4,0.6,1.4,1.4S53.3,14.4,52.5,14.4z"/>
	</g>
</g>
<g>
	<g>
		<path class="st0" d="M47.3,12.2c-0.2-0.2-0.5-0.3-0.7-0.3c-0.3,0-0.5,0.1-0.7,0.3c-0.2,0.2-0.3,0.5-0.3,0.7s0.1,0.5,0.3,0.7
			c0.2,0.2,0.5,0.3,0.7,0.3c0.3,0,0.5-0.1,0.7-0.3c0.2-0.2,0.3-0.5,0.3-0.7C47.6,12.7,47.5,12.4,47.3,12.2z"/>
	</g>
</g>
<g>
	<g>
		<path class="st0" d="M46.2,31c0.4,1.4,1.7,2.4,3.3,2.4c1.9,0,3.5-1.5,3.5-3.5s-1.5-3.5-3.5-3.5c-1.6,0-2.9,1-3.3,2.4H40v-7.9
			c0-0.6-0.5-1-1-1h-1.6V14H43c0.6,0,1-0.5,1-1s-0.5-1-1-1h-6.7c-0.6,0-1,0.5-1,1V20H31v-6.2c1.4-0.4,2.4-1.7,2.4-3.3
			C33.5,8.6,31.9,7,30,7s-3.5,1.5-3.5,3.5c0,1.6,1,2.9,2.4,3.3V20h-7.9c-0.6,0-1,0.5-1,1v1.6h-6.1V10.8c1.4-0.4,2.4-1.7,2.4-3.3
			c0-1.9-1.5-3.5-3.5-3.5S9.5,5.5,9.5,7.5c0,1.5,1,2.9,2.4,3.3v13c0,0.6,0.5,1,1,1H20V29h-6.2c-0.4-1.4-1.7-2.4-3.3-2.4
			C8.6,26.5,7,28.1,7,30c0,1.9,1.5,3.5,3.5,3.5c1.6,0,2.9-1,3.3-2.4H20v7.9c0,0.6,0.5,1,1,1h1.6V46H17c-0.6,0-1,0.5-1,1
			c0,0.6,0.5,1,1,1h6.7c0.6,0,1-0.5,1-1V40H29v6.2c-1.4,0.4-2.4,1.7-2.4,3.3c0,1.9,1.5,3.5,3.5,3.5c1.9,0,3.5-1.5,3.5-3.5
			c0-1.6-1-2.9-2.4-3.3V40h7.9c0.6,0,1-0.5,1-1v-1.6h6.1v11.9c-1.4,0.4-2.4,1.7-2.4,3.3c0,1.9,1.5,3.5,3.5,3.5s3.5-1.5,3.5-3.5
			c0-1.5-1-2.9-2.4-3.3v-13c0-0.6-0.5-1-1-1H40V31H46.2z M49.5,28.6c0.8,0,1.4,0.6,1.4,1.4s-0.6,1.4-1.4,1.4c-0.8,0-1.4-0.6-1.4-1.4
			S48.7,28.6,49.5,28.6z M12.9,8.9c-0.8,0-1.4-0.6-1.4-1.4S12.2,6,12.9,6s1.4,0.6,1.4,1.4S13.7,8.9,12.9,8.9z M10.5,31.4
			c-0.8,0-1.4-0.6-1.4-1.4s0.6-1.4,1.4-1.4s1.4,0.6,1.4,1.4S11.3,31.4,10.5,31.4z M28.6,10.5c0-0.8,0.6-1.4,1.4-1.4s1.4,0.6,1.4,1.4
			s-0.6,1.4-1.4,1.4S28.6,11.3,28.6,10.5z M31.4,49.5c0,0.8-0.6,1.4-1.4,1.4s-1.4-0.6-1.4-1.4c0-0.8,0.6-1.4,1.4-1.4
			S31.4,48.7,31.4,49.5z M37.9,37.9H22.1V22.1h15.8V37.9z M47.1,51.1c0.8,0,1.4,0.6,1.4,1.4S47.8,54,47.1,54s-1.4-0.6-1.4-1.4
			S46.3,51.1,47.1,51.1z"/>
	</g>
</g>
<g>
	<g>
		<path class="st0" d="M7.5,43.6c-1.9,0-3.5,1.5-3.5,3.5s1.5,3.5,3.5,3.5s3.5-1.5,3.5-3.5S9.4,43.6,7.5,43.6z M7.5,48.5
			c-0.8,0-1.4-0.6-1.4-1.4s0.6-1.4,1.4-1.4s1.4,0.6,1.4,1.4S8.2,48.5,7.5,48.5z"/>
	</g>
</g>
<g>
	<g>
		<path class="st0" d="M14.1,46.3c-0.2-0.2-0.5-0.3-0.7-0.3s-0.5,0.1-0.7,0.3c-0.2,0.2-0.3,0.5-0.3,0.7c0,0.3,0.1,0.5,0.3,0.7
			c0.2,0.2,0.5,0.3,0.7,0.3s0.5-0.1,0.7-0.3c0.2-0.2,0.3-0.5,0.3-0.7C14.4,46.8,14.3,46.5,14.1,46.3z"/>
	</g>
</g>
</svg>
