<?xml version="1.0" encoding="utf-8"?>
<!-- Generator: Adobe Illustrator 23.0.1, SVG Export Plug-In . SVG Version: 6.00 Build 0)  -->
<svg version="1.1" id="Layer_1" xmlns="http://www.w3.org/2000/svg" xmlns:xlink="http://www.w3.org/1999/xlink" x="0px" y="0px"
	 viewBox="0 0 568 467" style="enable-background:new 0 0 568 467;" xml:space="preserve">
<style type="text/css">
	.st0{fill:#EDF2FF;}
	.st1{fill:#102048;}
	.st2{fill:#F9B384;}
	.st3{fill:#E28B6D;}
	.st4{fill:#EE6F57;}
	.st5{fill:#1F3C88;}
	.st6{fill:#FFFFFF;}
	.st7{fill:#708CD5;}
	.st8{opacity:0.4;}
	.st9{opacity:0.4;fill:#1F3C88;enable-background:new    ;}
	.st10{opacity:0.4;fill:#FC8879;enable-background:new    ;}
	.st11{opacity:0.2;}
	.st12{opacity:0.2;fill:#1F3C88;enable-background:new    ;}
	.st13{fill:#FBC343;}
	.st14{opacity:0.8;}
	.st15{opacity:0.8;fill:#FFFFFF;enable-background:new    ;}
</style>
<g>
	<path class="st0" d="M248.4,249.8c-42.2-14.8-83.1-37.8-102-78.3c-18.5-40.2-9.3-91.3,22-122.6c11-11,24.4-19.6,39.8-21.6
		c21.6-2.7,42.6,7.9,60.1,20.6c17.5,12.7,33.3,28.5,53.2,37.4c22.3,10.3,47.7,11.7,71.4,18.9c14.4,4.5,28.5,11,38.1,22.7
		c9.3,11.7,13,26.8,13.4,41.9c0.3,42.9-28.8,84.1-69.4,98.6c-26.4,9.3-54.3,3.4-80.4-3.4C280,259.8,264.2,255.3,248.4,249.8z"/>
	<path class="st0" d="M231.9,287.3c-8.2,0-16.1-0.7-24-2.4c-21.3-4.8-41.6-16.5-56.7-33.7c-15.1-16.8-24.7-38.1-27.1-59.8
		c-1.4-12.4-1-30.2,8.6-46c5.5-8.9,13.4-16.8,24-23c8.6-5.2,18.9-9.6,31.6-13.4c6.2-1.7,13-3.4,19.2-5.2
		c15.1-3.8,30.6-7.6,44.6-15.1c13.7-7.2,26.1-17.5,37.8-27.8c7.6-6.2,15.1-13,23-18.5c15.5-11,29.5-16.8,42.9-17.2
		c17.5-0.7,32.6,7.9,42.2,14.8c34.3,25.8,48.4,75.2,33.7,117.1c-9.6,27.5-32.3,46.4-54.9,63.5c-11,8.2-25.4,18.9-40.9,29.2l-0.3-0.7
		l0.3,0.7c-22.7,14.4-42.9,24.4-62.2,30.6C259.4,284.8,245.3,287.3,231.9,287.3z M358,26.6c-0.7,0-1.4,0-1.7,0
		c-13,0.3-27.1,5.8-42.2,16.8c-7.9,5.8-15.5,12.4-23,18.5c-11.7,10-24,20.6-38.1,27.8s-29.9,11.3-45,15.1
		c-6.2,1.7-12.7,3.1-19.2,5.2c-27.1,7.9-45,19.6-54.9,35.7c-9.3,15.5-9.6,33-8.2,45c4.8,44,39.5,82.8,82.8,92.4
		c7.6,1.7,15.5,2.4,23.7,2.4c30.9,0,64.9-12.4,103.7-37.1c15.5-10,29.9-20.6,40.9-28.8c22.3-16.8,45-35.7,54.3-62.8
		c14.8-41.6,0.7-90.3-33.3-115.7C388.5,34.5,374.4,26.6,358,26.6z"/>
	<path class="st1" d="M202,179.1c0,0-4.5-11,13.4-26.1l-0.3,24.7L202,179.1z"/>
	<path class="st2" d="M201.4,127.9c-6.5-13-11.7-22.3-14.8-20.9c-1,0.3-1.4,1.4-1,2.4c1.7,6.9,8.6,19.2,8.6,19.2L201.4,127.9z"/>
	<path class="st2" d="M209.6,146.5l-11.3,7.2c-4.8-2.1-9.3-6.5-12-15.1c-0.3-1-0.3-2.4,0.3-3.4l2.4-4.1c0.7-1.4,1.4-3.1,1-4.8
		l-0.3-4.8c0-0.3,0-0.7,0.3-1l1.7-1.7c0.3-0.3,0.7-0.3,1,0l3.8,3.1h-0.7c0,0,0.7,6.2,5.2,6.5l2.4,3.1L209.6,146.5z"/>
	<path class="st2" d="M211,145.4l-1.4,1l-5.8-15.1l-2.4-3.1c-4.8-0.3-5.2-6.5-5.2-6.5h0.7l5.5,0.3c1.4,0,3.1,0.7,4.1,2.1l3.8,3.8
		c0.7,0.7,1.4,1.7,1.4,2.7C213,135.5,212.7,140.3,211,145.4z"/>
	<path class="st2" d="M217.8,147.8l-2.4,24c0,0-7.2,5.8-7.6,6.2c0,0.3-2.7-5.5-5.5-12.4c-3.4-8.6-7.6-18.5-7.6-18.5l15.8-8.9
		l5.5,7.2L217.8,147.8z"/>
	<path class="st3" d="M217.8,147.8l-2.4,24c0,0-7.2,5.8-7.6,6.2c0,0.3-2.7-5.5-5.5-12.4l13.7-20.3L217.8,147.8z"/>
	<path class="st3" d="M203.8,132c-0.3-0.3-2.1-2.4-2.4-3.1c-5.5-0.3-5.8-7.2-5.8-7.2V121h0.7c8.9-0.3,11,2.1,12,3.8
		c0.3,0.3,0.3,0.3,0.7,0.7l-0.7,0.7c-0.3-0.3-0.3-0.3-0.7-0.7c-1-1.4-2.7-3.4-10.6-3.1c0.3,1.4,1,5.5,5.2,5.8h0.3v0.3
		c0.7,1,2.4,3.1,2.4,3.4H203.8z"/>
	<path class="st3" d="M200.3,133.7c-0.7,0-1-0.3-1.4-0.3c-0.7-0.7-5.8-4.5-5.8-4.5l0.7-0.7c0,0,5.2,4.1,5.8,4.5c0.3,0,0.7,0.3,1,0.3
		c0.7-0.3,1-1,1.4-2.7h1c-0.3,2.4-1.4,3.1-2.1,3.4C200.7,133.7,200.7,133.7,200.3,133.7z"/>
	<path class="st3" d="M195.5,122.1c-0.3-0.3-4.5-1-5.2-0.7l-0.3-1c1-0.3,5.8,0.3,6.5,1.4L195.5,122.1z"/>
	<path class="st3" d="M200,139.9c-1.7,0-3.4-1.4-3.8-1.4l-4.5-3.1l0.7-1l4.5,3.1c1,0.7,3.1,1.7,3.8,1c0.3-0.3,0.3-0.7,0.3-1
		c0-1.4-1-3.4-2.1-4.1l0.7-0.7c1,1,2.4,3.1,2.4,4.8c0,0.7-0.3,1.4-0.7,1.7C201,139.6,200.7,139.9,200,139.9z"/>
	<path class="st3" d="M196.9,143.4c-1.4,0-3.1-1-3.4-1.4l-4.1-2.7l0.7-1l4.1,2.7c1,0.7,2.7,1.4,3.1,1c0.3,0,0.3-0.3,0.3-0.7
		c0-1.4-1-3.1-1.7-3.4l0.7-0.7c1,0.7,2.1,2.7,2.1,4.5c0,0.7-0.3,1.4-0.7,1.7C197.6,143.4,197.2,143.4,196.9,143.4z"/>
	<path class="st4" d="M252.5,446.6l-1,5.5c-9.3,0.7-20.6,6.9-26.1,14.8h44l1.4-22.7C264.5,445.6,257.7,446.9,252.5,446.6z"/>
	<path class="st2" d="M270.4,444.2l1-13.1l-14.8-2.7l-4.1,18.2C257.7,446.9,264.5,445.6,270.4,444.2z"/>
	<path class="st2" d="M341.5,443.2l-5.5-18.9l-14.8,2.1l3.4,17.9C330.5,444.5,336,444.2,341.5,443.2z"/>
	<path class="st4" d="M367.9,457.9c-7.2-9.6-16.1-10-25.4-10.6l-1-4.1c-5.2,1-11,1.4-16.5,1l4.5,22.7L367.9,457.9z"/>
	<path class="st5" d="M294.8,209l-2.1,52.9c0,1.4,0,2.7,0,4.1c-1,28.8-2.7,56.7-5.5,83.8c-3.1,30.6-6.9,59.8-11.3,88.3H246
		c-4.1-63.2-10.6-139.4,1.7-208.1l7.6-18.5L294.8,209z"/>
	<path class="st5" d="M336,232.7c7.6,62.8,14.1,133.2,11,198.8l-32.6,6.2c-8.9-54.6-24.4-125-26.4-188.5l-4.5-51.5l48.8,13.7
		L336,232.7z"/>
	<path class="st2" d="M298.5,79.8h-21.6v26.8h21.6V79.8z"/>
	<path class="st6" d="M276.6,96.3c7.9,11,18.2,6.2,22-1.4l25.8,114.7c-24,10.3-47.4,12-69-0.3L269,100.8L276.6,96.3z"/>
	<path class="st1" d="M310.6,63c4.8-9.6,5.8-24-5.2-24.7c-9.6-9.6-25.4-8.2-34.7,1.7c-17.5-5.5-20.3,26.8,2.1,25.8L310.6,63z"/>
	<path class="st1" d="M276.9,79.8v14.4c6.5,0,11.7-2.4,15.1-6.2c0,0-6.2-4.5-11.3-7.9h-3.8V79.8z"/>
	<path class="st2" d="M307.5,53.7l-1.7,16.5c-2.7,7.2-5.8,12.7-10,15.8c-4.1,3.4-9.6,4.5-14.8,3.1c-4.5-1.4-7.9-4.5-9.3-8.9
		c-0.7-2.4-1-5.2-0.3-7.9c0-0.3,0.3-1,0.3-1.4c0.3-2.1,0-3.8-0.3-5.8c-1-3.8-1-7.9-0.3-12l19.6-6.2L307.5,53.7z"/>
	<path class="st7" d="M269.4,253.6c-10,2.1-22,2.1-35,0c3.1-29.5,7.6-57.7,14.4-83.4l-28.5-2.7c0.3-4.5,1-9.3,1.7-14.1
		c1-5.5,2.4-11,4.5-16.8c0-0.3,0-0.3,0.3-0.7c6.9-19.9,19.2-34.7,49.8-39.8C286.5,142,285.8,209.3,269.4,253.6z"/>
	<path class="st7" d="M342.5,215.8c1.7,10.3,3.1,20.6,4.8,31.3c-10,3.4-21.6,4.8-35.4,4.1c-5.8-18.2-9.6-37.4-11.7-57c0,0,0,0,0-0.3
		c-3.4-31.3-5.8-64.2-1.7-98.6c12.4,1,25.4,4.8,37.4,12.4c4.1,2.7,7.6,6.5,9.6,11c8.2,17.2,12.4,32.6,15.5,48.1l-26.4,10.6
		c0.7,3.1,1.4,6.5,2.1,9.6C339.1,196.9,340.8,206.2,342.5,215.8z"/>
	<path class="st7" d="M254.9,159.2l-3.4,28.5l-1.7,2.1l-7.9,10.6c-3.4,4.5-7.9,6.5-12.4,6.5c-4.8,0-9.6-2.4-13-7.2l-14.1-20.9
		c6.9-9.3,13.7-18.9,15.8-31.3c9.3,10.6,12,14.8,12,14.8L254.9,159.2z"/>
	<path class="st1" d="M270.4,59.9c7.2-0.3,14.4-2.1,21.6-5.8c2.4,4.5,7.6,10.3,15.8,7.9l1-4.8l0.7-8.2l-24-7.6l-18.9,6.2L270.4,59.9
		z"/>
	<g class="st8">
		<path class="st9" d="M342.5,215.8c-15.5-1.4-29.9-8.6-42.2-21.6c0,0,0,0-0.3-0.3l36.7-6.9C339.1,196.9,340.8,206.2,342.5,215.8z"
			/>
	</g>
	<path class="st1" d="M289.3,267.3c4.8,28.5,0.7,55.6-2.1,82.4C265.6,315.8,286.5,274.5,289.3,267.3z"/>
	<path class="st5" d="M218.2,147.5l-0.8,0.6l15.7,20l0.8-0.6L218.2,147.5z"/>
	<g class="st8">
		<path class="st9" d="M330.1,135.5l5.5,30.9c0,0-9.6,6.5-12.7,1C320.5,163.6,323.6,150.2,330.1,135.5z"/>
	</g>
	<path class="st2" d="M274.5,157.4l-6.5,0.3c-0.7,0-1.4,0.7-1.4,1.4c-0.3,1,0,2.4,0.7,3.4l1,1.7c0.3,0.3,0,0.7,0,0.7
		c-1,0.3-1.7,1.4-1.7,2.7c0,0.3,0,0.7,0,0.7c0.3,1,1,2.1,2.1,2.4l0.7,0.3c0,0,0,0,0,0.3l-1,1.4c-0.7,1.4,0.3,3.4,1.4,4.1
		c0.3,0.3,0.7,0.3,1.4,0.3l2.7,0.3c1.4,0.3,2.7,0.7,3.8,1.4c5.8,3.4,13.1,3.1,20.3,2.7l-0.7-18.9c-4.8-3.8-10.3-6.9-16.8-9.3
		l-15.5-11C261.1,144.7,263.2,148.9,274.5,157.4z"/>
	<path class="st7" d="M361,167.1l2.4,9.6c3.1,12.4-6.5,24.4-18.2,23l-55.6-6.9l4.1-31.6L361,167.1z"/>
	<path class="st5" d="M249,135l-7.8,65.8l1,0.1l7.8-65.8L249,135z"/>
	<path class="st5" d="M294.1,160.4l-0.1,1l41.7,3.5l0.1-1L294.1,160.4z"/>
	<path class="st3" d="M277.3,166.4c-0.3,0-7.9-0.7-9.3-1l0.3-1c1,0.3,6.9,1,8.9,1V166.4z"/>
	<path class="st3" d="M278.3,173.2c-0.3,0-7.9-0.7-9.3-1l0.3-1c1,0.3,6.9,1,9.3,1L278.3,173.2z"/>
	<path class="st2" d="M302.7,74.3c13.7,2.1,15.5-19.6,1-11L302.7,74.3z"/>
	<path class="st3" d="M305.8,68.5c0-0.7-0.3-1.4,0-2.1c0-0.7,0.7-1.4,1-2.1c0.7-0.7,1.4-1,2.1-1s1.7,0.7,2.1,1.4l-0.3,0.3
		c-0.3-0.3-1-0.7-1.7-0.7s-1,0.3-1.4,0.7c-0.3,0.3-0.7,1-1,1.4c-0.3,0.7-0.3,1.4-0.3,2.1H305.8z"/>
	<path class="st1" d="M279.3,65.4c0,1.4-0.7,2.4-1.7,2.4s-1.7-1-1.7-2.4c0-1.4,0.7-2.4,1.7-2.4S279.3,64,279.3,65.4z"/>
	<path class="st1" d="M292.7,64c0,1.4-0.7,2.4-1.7,2.4c-1,0-1.7-1-1.7-2.4c0-1.4,0.7-2.4,1.7-2.4C292,61.6,292.7,62.7,292.7,64z"/>
	<path class="st1" d="M284.8,63.3c0,1.4-0.7,2.4-1,3.8c-0.3,1-1.4,2.4-1.7,3.1c-0.7,1-0.7,2.1,0,2.7c0.7,1,1.7,1.7,2.7,2.4l-0.3,0.3
		c-1-0.3-2.4-1-3.4-2.1c-0.3-0.7-0.7-1.4-0.7-2.1c0-0.7,0.3-1.4,0.7-2.1c0.7-1.4,1.4-2.1,2.1-3.1C283.8,65.4,284.5,64.4,284.8,63.3z
		"/>
	<path class="st6" d="M281,79.5l9.6-2.7c0,0,0,4.5-4.5,5.5C283.1,82.9,281,79.5,281,79.5z"/>
	<g class="st8">
		<path class="st10" d="M276.2,75.4c0,2.4-1.7,4.5-4.5,4.8c-0.7-2.4-1-5.2-0.3-7.9c0-0.3,0.3-1,0.3-1.4
			C274.2,70.9,276.2,73,276.2,75.4z"/>
	</g>
	<g class="st8">
		<path class="st10" d="M296.8,77.1c2.7,0,4.8-2.2,4.8-4.8c0-2.7-2.2-4.8-4.8-4.8s-4.8,2.2-4.8,4.8C292,74.9,294.2,77.1,296.8,77.1z
			"/>
	</g>
	<g class="st8">
		<path class="st9" d="M242.9,192.8l-1.4,7.9c-3.4,4.5-7.9,6.5-12.4,6.5c4.5-18.2,15.1-31.3,15.1-31.3L242.9,192.8z"/>
	</g>
	<g class="st11">
		<path class="st12" d="M233.3,167.7l-11-14.1c1-5.5,2.4-11,4.5-16.8c0-0.3,0-0.3,0.3-0.7C229.2,139.9,234,150.9,233.3,167.7z"/>
	</g>
	<path class="st6" d="M227.8,71.6c-5.2-2.1-9.6-5.2-13-9.6c4.1-6.2,6.5-13.7,6.5-21.6c0-21.6-18.2-39.8-40.2-39.1
		c-22,0.3-39.8,19.2-38.5,41.9c1.4,19.6,17.2,35.4,36.7,36.7c9.6,0.7,18.5-2.4,25.8-7.6c6.2,2.7,13.4,3.1,22.3,0.7
		C228.1,72.3,228.5,71.6,227.8,71.6z"/>
	<path class="st7" d="M182.1,79.8c-0.7,0-1.7,0-2.4,0c-9.6-0.7-18.9-4.8-25.8-11.7S143,52,142.3,42.4c-0.7-11,3.1-21.6,10.3-29.5
		c7.6-8.2,17.5-12.7,28.5-12.7c10.6-0.3,20.9,3.8,28.5,11.3c7.9,7.6,12,17.5,12,28.5c0,7.6-2.1,15.1-6.5,21.6
		c3.4,4.1,7.6,7.2,12.7,9.3c0.3,0.3,0.7,0.7,0.7,1s-0.3,1-0.7,1c-8.6,2.4-15.8,2.1-22.7-0.7C198.6,77.4,190.4,79.8,182.1,79.8z
		 M182.1,1.5c-0.3,0-0.7,0-0.7,0c-10.6,0.3-20.3,4.8-27.5,12.4c-7.2,7.9-10.6,17.9-10,28.5c1.4,19.6,16.8,35,36.1,36.1
		c8.9,0.7,18.2-2.1,25.4-7.6l0.3-0.3h0.3c6.5,2.7,13.7,3.1,22,1c-5.2-2.1-9.6-5.5-13-10l-0.3-0.3l0.3-0.3c4.1-6.2,6.5-13.7,6.5-21.3
		c0-10.3-4.1-20.3-11.7-27.5C201.7,5.3,192.1,1.5,182.1,1.5z"/>
	<path class="st13" d="M194.1,39.7c0-7.6-6.5-13.4-14.1-12.4c-5.8,0.7-10.3,5.2-11,11c-0.3,3.8,0.7,7.6,3.1,10
		c1.7,2.1,2.7,4.8,2.7,7.6c0,3.8,3.1,6.5,6.5,6.5c3.8,0,6.5-3.1,6.5-6.5c0-2.7,1-5.5,3.1-7.9C193.1,45.5,194.1,42.7,194.1,39.7z"/>
	<path class="st1" d="M181.8,64.4c2.4,0,4.1-1.7,4.5-3.8h-8.9C177.3,62.7,179.4,64.4,181.8,64.4z"/>
	<g class="st14">
		<path class="st15" d="M178,37.6c-0.7,2.4-2.4,3.8-3.4,3.4c-1-0.3-1.4-2.4-0.7-4.8c0.7-2.4,2.4-3.8,3.4-3.4
			C178.7,33.5,178.7,35.5,178,37.6z"/>
	</g>
	<path class="st13" d="M181.8,22.8c-0.7,0-1.4-0.7-1.4-1.4v-6.9c0-0.7,0.7-1.4,1.4-1.4c0.7,0,1.4,0.7,1.4,1.4v6.9
		C183.2,22.1,182.5,22.8,181.8,22.8z"/>
	<path class="st13" d="M172.2,24.9c-0.7,0.3-1.4,0.3-1.7-0.3l-3.1-4.8c-0.3-0.7-0.3-1.4,0.3-1.7c0.7-0.3,1.4-0.3,1.7,0.3l3.1,4.8
		C172.9,23.9,172.9,24.5,172.2,24.9z"/>
	<path class="st13" d="M191.4,24.9c0.7,0.3,1.4,0.3,1.7-0.3l3.1-4.5c0.3-0.7,0.3-1.4-0.3-1.7c-0.7-0.3-1.4-0.3-1.7,0.3l-3.1,4.5
		C190.4,23.5,190.7,24.5,191.4,24.9z"/>
</g>
</svg>
